<?xml version="1.0" encoding="utf-8"?>
<!-- Generator: Adobe Illustrator 16.0.0, SVG Export Plug-In . SVG Version: 6.00 Build 0)  -->
<!DOCTYPE svg PUBLIC "-//W3C//DTD SVG 1.1//EN" "http://www.w3.org/Graphics/SVG/1.1/DTD/svg11.dtd">
<svg version="1.1" id="design" xmlns="http://www.w3.org/2000/svg" xmlns:xlink="http://www.w3.org/1999/xlink" x="0px" y="0px"
	 width="123.947px" height="100px" viewBox="0 0 123.947 100" enable-background="new 0 0 123.947 100" xml:space="preserve">
<rect id="pen-bottom" x="47.959" y="90" fill="#181C1D" width="28" height="9"/>
<path id="pen" fill="#181C1D" d="M96.584,62.405L67.6,6.293L61.94,0.587l-5.553,5.486l-0.005-0.039L27.397,62.423L27.404,63h-0.061
	l20.615,18.419V88h28v-6.48L96.604,63H96.59L96.584,62.405z M68.209,80H55.772L35.138,59.968l25.821-48.971v29.969
	c-2,0.502-3.12,2.183-3.12,4.185c0,2.397,1.884,4.342,4.216,4.342c2.331,0,4.229-1.944,4.229-4.342c0-2.084-1.324-3.824-3.324-4.243
	V10.803l25.902,49.165L68.209,80z"/>
</svg>
