<?xml version="1.0" encoding="utf-8"?>
<!-- Generator: Adobe Illustrator 16.0.0, SVG Export Plug-In . SVG Version: 6.00 Build 0)  -->
<!DOCTYPE svg PUBLIC "-//W3C//DTD SVG 1.1//EN" "http://www.w3.org/Graphics/SVG/1.1/DTD/svg11.dtd">
<svg version="1.1" xmlns="http://www.w3.org/2000/svg" xmlns:xlink="http://www.w3.org/1999/xlink" x="0px" y="0px"
	 width="377.08px" height="576.574px" viewBox="0 0 377.08 576.574" enable-background="new 0 0 377.08 576.574"
	 xml:space="preserve">
<g id="bg" display="none">
	<rect x="-208.53" y="-17.713" display="inline" fill="#363C3F" width="792" height="612"/>
</g>
<g id="polygonal">
	<g>
		<polygon fill="#D8A475" points="172.036,264.528 232.974,264.712 187.182,308.115 		"/>
		<polygon fill="#EAC49D" points="232.974,264.712 220.593,308.115 187.182,308.115 		"/>
		<polygon fill="#F2D8B8" points="187.182,308.115 187.182,324.301 220.593,308.115 		"/>
		<polygon fill="#EBC8A1" points="220.593,308.115 219.251,337.135 187.182,324.301 		"/>
		<polygon fill="#EEC4A2" points="187.182,324.301 181.401,345.285 219.251,337.135 		"/>
		<polygon fill="#E9B78B" points="181.401,345.285 172.036,358.466 194.06,363.391 		"/>
		<polygon fill="#EBB88E" points="172.036,358.466 164.579,371.125 194.06,363.391 		"/>
		<polygon fill="#EAB99A" points="164.579,371.125 160.243,382.225 175.78,380.451 		"/>
		<polygon fill="#ECC3A5" points="160.243,382.225 157.222,392.564 175.78,380.451 		"/>
		<polygon fill="#E59C79" points="157.222,392.564 157.122,403.035 175.969,396.644 		"/>
		<polygon fill="#D56F50" points="157.122,403.035 160.243,409.509 175.969,396.644 		"/>
		<polygon fill="#CB5742" points="160.243,409.509 168.534,412.242 175.969,396.644 		"/>
		<polygon fill="#CB5B41" points="175.969,396.644 183.285,402.155 168.534,412.242 		"/>
		<polygon fill="#BE3E2B" points="178.433,405.439 186.083,406.329 183.285,402.155 		"/>
		<polygon fill="#D05B49" points="186.083,406.329 197.702,413.898 192.427,397.3 		"/>
		<polygon fill="#AF3226" points="183.285,402.155 192.427,397.3 186.083,406.329 		"/>
		<polygon fill="#EBC0A4" points="175.969,396.644 175.78,380.451 157.222,392.564 		"/>
		<polygon fill="#E6B199" points="175.969,396.644 183.047,391.067 175.78,380.451 		"/>
		<polygon fill="#EABBA2" points="183.047,391.067 192.427,397.3 195.537,388.944 201.207,373.61 		"/>
		<polygon fill="#EBBE9F" points="175.78,380.451 194.06,363.391 164.579,371.125 		"/>
		<polygon fill="#EABFA3" points="194.06,363.391 183.047,391.067 175.78,380.451 		"/>
		<polygon fill="#F2D4C4" points="194.06,363.391 201.207,373.61 189.105,376.185 		"/>
		<polygon fill="#C5593B" points="197.702,413.898 217.386,406.329 210.882,398.787 		"/>
		<polygon fill="#CA5A40" points="210.882,398.787 192.427,397.3 197.702,413.898 		"/>
		<polygon fill="#C9513B" points="217.386,406.329 223.542,404.727 213.494,401.815 		"/>
		<polygon fill="#7C1F17" points="213.494,401.815 224.148,397.568 223.542,404.727 		"/>
		<polygon fill="#C23D27" points="223.542,404.727 230.74,409.711 224.148,397.568 		"/>
		<polygon fill="none" points="230.74,409.711 239.5,409.711 242.345,393.979 		"/>
		<polygon fill="#D67D60" points="224.148,397.568 242.345,393.979 230.74,409.711 		"/>
		<polygon fill="#E8B89D" points="242.345,393.979 240.451,378.236 221.591,390.959 		"/>
		<polygon fill="#DA825A" points="221.591,390.959 224.148,397.568 242.345,393.979 		"/>
		<polygon fill="#D88F73" points="221.591,390.959 210.882,398.787 201.207,373.61 		"/>
		<polygon fill="#EAC2AD" points="201.207,373.61 204.275,380.752 220.767,380.705 		"/>
		<polygon fill="#E6B199" points="220.767,380.705 236.259,381.094 221.591,390.959 204.275,380.752 		"/>
		<polygon fill="#E9B599" points="240.451,378.236 232.734,363.321 201.207,373.61 		"/>
		<polygon fill="#EBBD9C" points="232.734,363.321 219.251,337.135 201.207,373.61 		"/>
		<polygon fill="none" stroke="#FDFEFF" stroke-width="0.25" points="253.351,317.203 273.734,326.871 269.189,308.171 		"/>
		<polygon fill="#D3946C" points="273.734,326.871 296.554,321.873 285.33,306.998 		"/>
		<polygon fill="#CF8F6A" points="269.189,308.171 285.33,306.998 273.734,326.871 		"/>
		<polygon fill="#C88A61" points="285.33,306.998 309.041,303.992 296.554,321.873 		"/>
		<polygon fill="#BC805B" points="309.041,303.992 290.703,293.778 309.041,293.778 		"/>
		<polygon fill="#9C5A34" points="309.041,293.778 298.287,288.547 290.703,293.778 		"/>
		<polygon fill="#AC603F" points="298.287,288.547 280.83,288.114 290.703,293.778 		"/>
		<polygon fill="#8F4832" points="280.83,288.114 269.398,288.749 274.406,290.919 		"/>
		<polygon fill="#945131" points="274.406,290.919 290.703,293.778 280.83,288.114 		"/>
		<polygon fill="#873B24" points="269.398,288.749 255.164,292.738 261.349,294.649 		"/>
		<polygon fill="#75371C" points="261.349,294.649 274.406,290.919 269.398,288.749 		"/>
		<polygon fill="none" points="255.164,292.738 241.521,303.606 261.349,294.649 		"/>
		<polygon fill="#C27742" points="236.083,309.27 237.591,302.45 241.521,303.606 		"/>
		<polygon fill="#B0552E" points="237.591,302.45 255.164,292.738 241.521,303.606 		"/>
		<polygon fill="#812D1A" points="241.521,303.606 244.072,309.096 236.083,309.27 		"/>
		<polygon fill="#7A2516" points="244.072,309.096 248.228,300.573 241.521,303.606 		"/>
		<polygon fill="#8D2F1D" points="248.228,300.573 252.126,308.803 244.072,309.096 		"/>
		<polygon fill="#773017" points="252.126,308.803 261.349,294.649 248.228,300.573 		"/>
		<polyline fill="#CA8562" points="263.933,301.408 269.189,308.171 252.126,308.803 261.349,294.649 263.933,301.408 		"/>
		<polygon fill="#814F3F" points="282.679,307.221 284.958,292.893 293.535,306.036 		"/>
		<polygon fill="#693326" points="293.535,306.036 290.703,293.778 309.041,303.992 		"/>
		<polygon fill="#9A3D21" points="168.046,309.386 143.445,293.807 150.068,291.388 		"/>
		<polygon fill="#CA926B" points="133.217,288.013 118.361,287.708 126.742,292.354 		"/>
		<polygon fill="#B07445" points="126.742,292.354 143.445,293.807 133.217,288.013 		"/>
		<polygon fill="#CB9B75" points="118.361,287.708 96.683,293.969 126.742,292.354 		"/>
		<polygon fill="#B56A42" points="96.683,293.969 87.468,301.791 96.683,303.751 		"/>
		<polygon fill="#C08C5F" points="96.683,303.751 126.742,292.354 96.683,293.969 		"/>
		<polygon fill="#9A3B22" points="87.468,301.791 96.054,310.146 96.683,303.751 		"/>
		<polygon fill="#853923" points="96.054,310.146 112.537,307.651 96.683,303.751 		"/>
		<polygon fill="#B36240" points="112.537,307.651 112.537,307.651 115.616,310.133 96.054,310.146 		"/>
		<polygon fill="#B36240" points="112.537,307.651 138.193,307.565 115.616,310.133 		"/>
		<polygon fill="#CF9B78" points="138.193,307.565 150.994,307.651 136.237,309.828 		"/>
		<polygon fill="#D6A487" points="150.994,307.651 155.502,309.386 136.237,309.828 		"/>
		<polygon fill="#D7A989" points="150.994,307.651 164.35,306.958 155.502,309.386 		"/>
		<polygon fill="#DCA37C" points="104.285,316.208 115.616,310.133 116.28,324.907 		"/>
		<polygon fill="#DBA782" points="115.616,310.133 128.788,321.157 116.28,324.907 		"/>
		<polygon fill="#CC8962" points="143.565,316.637 136.357,309.702 128.909,321.032 		"/>
		<polygon fill="#AC6E41" points="138.193,307.565 143.445,293.807 150.994,307.651 		"/>
		<polygon fill="#A77057" points="115.95,296.424 120.311,307.539 112.537,307.651 		"/>
		<polygon fill="#94361F" points="143.767,463.212 162.497,459.745 158.161,473.618 		"/>
		<polygon fill="#E5A891" points="158.161,473.618 178.433,490.961 195.605,466.486 		"/>
		<polygon fill="#E09B89" points="160.76,465.304 195.605,466.486 158.161,473.618 		"/>
		<polygon fill="#E79D8D" points="178.433,490.961 202.905,486.277 195.605,466.486 		"/>
		<polygon fill="#E9AA94" points="202.905,486.277 227.142,488.88 195.605,466.486 		"/>
		<polygon fill="#BB5136" points="178.433,490.961 201.128,504.661 202.905,486.277 		"/>
		<polygon fill="#C25D3F" points="201.128,504.661 227.142,488.88 202.905,486.277 		"/>
		<polygon fill="#E2AB99" points="227.142,488.88 251.984,468.764 227.142,466.161 		"/>
		<polygon fill="#EAAA9A" points="227.142,466.161 195.605,466.486 227.142,488.88 		"/>
		<polygon fill="#872D1B" points="251.984,468.764 256.318,463.733 240.451,457.489 		"/>
		<polygon fill="#DE7F5F" points="240.451,457.489 215.392,443.789 206.373,448.818 		"/>
		<polygon fill="#B8422C" points="206.373,448.818 212.876,466.414 240.451,457.489 		"/>
		<polygon fill="#BD412C" points="206.373,448.818 195.605,466.486 212.876,466.414 		"/>
		<polygon fill="#D97056" points="162.497,459.745 189.105,444.656 199.958,449.686 		"/>
		<polygon fill="#D7684D" points="199.958,449.686 206.373,448.818 195.605,466.486 		"/>
		<polygon fill="#B43025" points="160.76,465.304 181.228,454.715 195.605,466.486 		"/>
		<polygon fill="#A35832" points="232.974,264.712 244.072,271.58 235.281,283.502 		"/>
		<polygon fill="#DEB58C" points="265.279,270.021 279.587,266.4 269.398,288.749 		"/>
		<polyline fill="#EBD0B3" points="232.974,264.712 204.337,219.974 238.548,250.654 232.974,264.712 		"/>
		<polygon fill="#DCB695" points="238.548,250.654 261.681,231.505 291.466,244.643 		"/>
		<polygon fill="#E6CB9E" points="291.236,244.643 308.81,247.995 300.486,212.153 		"/>
		<polygon fill="#341B14" points="250.099,249.342 244.072,271.58 265.279,270.021 		"/>
		<polygon fill="#391F16" points="260.929,248.112 279.587,266.4 265.279,270.021 		"/>
		<polyline fill="#573E31" points="279.587,266.4 291.466,244.643 305.583,265.337 		"/>
		<polygon fill="#E8CCAC" points="172.036,264.528 204.337,219.974 207.414,264.528 		"/>
		<polygon fill="#F0DFCA" points="172.036,264.528 138.276,244.643 168.046,181.748 		"/>
		<polygon fill="#F1DEC3" points="168.046,181.748 204.337,219.974 172.036,264.528 		"/>
		<polygon fill="#EBD3AD" points="138.276,244.643 99.891,244.643 132.062,126.945 		"/>
		<polyline fill="#ECD4B2" points="215.033,156.775 215.033,156.775 284.248,138.911 235.638,124.478 		"/>
		<polyline fill="#EBCEA1" points="311.757,164.058 330.775,199.382 215.033,156.775 311.757,164.058 284.248,138.911 		"/>
		<polygon fill="#DEBF99" points="300.486,212.153 330.544,199.382 349.39,234.815 		"/>
		<polygon fill="#EBCBA4" points="240.451,378.236 273.734,326.871 219.251,337.135 		"/>
		<polygon fill="#EDCBAC" points="273.734,326.871 320.138,409.277 240.451,378.236 		"/>
		<polygon fill="#ECCBA7" points="320.138,409.277 351.875,346.905 273.734,326.871 		"/>
		<polygon fill="#E0BC9E" points="351.875,346.905 351.875,346.905 341.296,443.789 320.138,409.277 		"/>
		<polygon fill="#DBB387" points="341.296,443.789 308.572,527.205 256.318,463.733 		"/>
		<polygon fill="#DEB794" points="320.138,409.277 256.318,463.733 341.296,443.789 		"/>
		<polygon fill="#EBC4A2" points="239.5,409.711 320.138,409.277 242.345,393.979 		"/>
		<polygon fill="#E7BE9B" points="239.5,409.711 256.318,463.733 320.138,409.277 		"/>
		<polygon fill="#E8AF93" points="230.74,409.711 215.392,443.789 217.386,406.329 		"/>
		<polygon fill="#EBC9B2" points="197.702,413.898 215.392,443.789 217.386,406.329 		"/>
		<polygon fill="#EAC1A6" points="197.702,413.898 189.105,444.656 209.4,433.687 		"/>
		<polygon fill="#EABBA1" points="189.105,444.656 215.392,443.789 209.4,433.687 		"/>
		<polygon fill="#D57054" points="168.534,412.242 186.083,406.329 178.433,405.439 		"/>
		<polygon fill="#E5A78F" points="168.534,412.242 197.702,413.898 186.083,406.329 		"/>
		<polygon fill="#E9C4A0" points="201.128,504.661 201.171,543.854 277.021,488.88 		"/>
		<polygon fill="#DFBC95" points="201.171,543.854 266.789,538.339 277.021,488.88 		"/>
		<polygon fill="#DAB387" points="266.789,538.339 308.572,527.205 277.021,488.88 		"/>
		<polygon fill="#E5B897" points="201.171,543.854 144.52,537.712 201.128,504.661 		"/>
		<polygon fill="#DFB98A" points="144.52,537.712 102.666,527.205 143.767,463.212 		"/>
		<polygon fill="#E6BB9C" points="144.52,537.712 178.433,490.961 201.128,504.661 		"/>
		<path fill="none" stroke="#FDFEFF" stroke-width="0.25" d="M48.905,382.225"/>
		<polygon fill="#E7BD9C" points="168.046,309.386 187.182,324.301 116.28,324.907 		"/>
		<polygon fill="#D49C75" points="168.046,309.386 172.036,264.528 187.182,308.115 		"/>
		<polygon fill="#DDB288" points="121.854,269.326 145.328,269.326 133.217,288.013 		"/>
		<polygon fill="#E0BB98" points="121.854,269.326 118.361,287.708 108.909,267.766 		"/>
		<polygon fill="#D1A178" points="89.66,269.326 87.468,301.791 96.683,293.969 		"/>
		<polygon fill="#BA8660" points="89.66,269.326 65.149,269.326 87.468,301.791 		"/>
		<polygon fill="#EBCBA0" points="99.891,244.643 84.284,251.549 90.63,156.197 		"/>
		<polygon fill="#EBC9A7" points="345.371,406.373 369.39,401.777 348.226,380.153 		"/>
		<polygon fill="#EBCAB4" points="374.941,360.372 369.472,335.746 350.617,358.972 		"/>
		<polygon fill="#E0A780" points="369.472,335.746 369.39,312.913 350.738,335.746 		"/>
		<polygon fill="#EBD1BA" points="369.39,312.913 362.738,291.388 350.056,305.19 		"/>
		<polygon fill="#E8C9B2" points="25.32,354.649 25.32,321.157 44.268,343.649 		"/>
		<polygon fill="#1D1514" points="365.347,212.153 369.39,126.945 284.248,138.911 		"/>
		<polygon fill="#211C18" points="350.535,75.266 258.548,9.134 256.58,101.804 		"/>
		<polygon fill="#231C19" points="18.499,114.025 7.4,129.836 90.63,156.197 		"/>
		<polygon fill="#423126" points="25.32,220.132 31.285,279.79 46.014,250.538 		"/>
		<polygon fill="#321D15" points="120.311,307.539 128.102,300.595 115.95,296.424 		"/>
		<polygon fill="#341E18" points="128.102,300.595 126.742,292.354 115.95,296.424 		"/>
		<polygon fill="#291612" points="128.102,300.595 143.445,293.807 126.742,292.354 		"/>
		<polygon fill="#251410" points="128.102,300.595 138.193,307.565 120.311,307.539 		"/>
		<polygon fill="#301915" points="269.189,308.171 274.47,300.27 285.33,306.998 		"/>
		<polygon fill="#2B1614" points="274.47,300.27 263.933,301.408 269.189,308.171 		"/>
		<polygon fill="#231612" points="274.47,300.27 274.406,290.919 261.349,294.649 		"/>
		<path fill="none" stroke="#FDFEFF" stroke-width="0.25" d="M284.958,292.893"/>
		<path fill="none" stroke="#FDFEFF" stroke-width="0.25" d="M274.47,300.27"/>
		<path fill="none" stroke="#FDFEFF" stroke-width="0.25" d="M235.638,124.478"/>
		<polygon opacity="0.5" fill="#090909" points="261.349,294.649 263.933,301.408 263.933,301.408 		"/>
		<polygon fill="#090909" points="261.349,294.649 274.47,300.27 263.933,301.408 		"/>
		<polygon fill="#AC603F" points="293.535,306.036 290.703,293.778 284.958,292.893 		"/>
		<polygon fill="#DF8F77" points="192.427,397.3 210.882,398.787 201.207,373.61 		"/>
		<polyline fill="none" points="284.248,138.911 235.638,124.478 205.102,126.945 214.803,156.775 214.803,156.775 		"/>
		<polygon fill="#D47158" points="230.74,409.711 223.542,404.727 217.386,406.329 		"/>
		<polygon fill="none" points="183.047,391.067 201.207,373.61 189.105,376.185 		"/>
		<polygon fill="#EABDA7" points="201.207,373.61 220.767,380.705 236.259,381.094 240.451,378.236 		"/>
		<polygon fill="#F1C9B1" points="181.401,345.285 219.251,337.135 201.207,373.61 		"/>
		<polygon fill="#EEC1AD" points="201.207,373.61 183.047,391.067 189.105,376.185 		"/>
		<polyline fill="#321310" points="192.427,397.3 183.047,391.067 175.969,396.644 183.285,402.155 		"/>
		<polygon fill="#301915" points="263.933,301.408 266.031,308.225 269.189,308.171 		"/>
		<polygon fill="#291612" points="274.406,290.919 284.958,292.893 274.47,300.27 		"/>
		<polygon fill="#473329" points="274.47,300.27 282.888,305.905 284.958,292.893 		"/>
		<polygon fill="#301A14" points="128.102,300.595 138.193,307.565 143.445,293.807 		"/>
		<polygon fill="#833F37" points="96.683,303.751 112.537,307.651 115.95,296.424 		"/>
		<polygon fill="#8A321E" points="150.994,307.651 164.35,306.958 143.445,293.807 		"/>
		<polygon fill="#2C1210" points="224.148,397.568 221.591,390.959 210.882,398.787 213.494,401.815 		"/>
		<polygon fill="#8A3B1E" points="261.349,294.649 255.164,292.738 241.521,303.606 		"/>
		<polygon fill="#CA906F" points="138.193,307.565 136.237,309.828 115.616,310.133 		"/>
		<polygon fill="#C27742" points="236.083,309.27 269.189,308.171 253.351,317.203 		"/>
		<polygon fill="#EBC49C" points="273.734,326.871 219.251,337.135 236.083,321.873 		"/>
		<polygon fill="#D8A07A" points="236.083,321.873 236.083,309.27 273.734,326.871 		"/>
		<polygon fill="#EAC39A" points="236.083,321.873 219.251,337.135 220.593,308.115 		"/>
		<polygon fill="#E6BD8F" points="220.593,308.115 236.083,309.27 236.083,321.873 		"/>
		<polygon fill="#DEA077" points="220.593,308.115 224.416,294.649 236.083,309.27 		"/>
		<polygon fill="#CD8C63" points="236.083,309.27 237.591,302.45 224.416,294.649 		"/>
		<polygon fill="#BB5C38" points="224.416,294.649 228.361,280.749 237.591,302.45 		"/>
		<polygon fill="#D29462" points="269.398,288.749 265.279,270.021 260.929,290.919 		"/>
		<polygon fill="#B76039" points="237.591,302.45 245.591,298.029 240.451,286.148 		"/>
		<polygon fill="#B2532F" points="228.361,280.749 240.451,286.148 237.591,302.45 		"/>
		<polygon fill="#B25F35" points="235.281,283.502 232.974,264.712 228.361,280.749 		"/>
		<polygon fill="#AF5A30" points="240.451,286.148 244.072,271.58 235.281,283.502 		"/>
		<polygon fill="#B76435" points="245.591,298.029 255.164,292.738 240.451,286.148 		"/>
		<polygon fill="#CE8858" points="255.164,292.738 260.929,290.919 256.839,280.749 		"/>
		<polygon fill="#D49A66" points="256.839,280.749 263.48,278.863 260.929,290.919 		"/>
		<polygon fill="#A14E2E" points="244.072,271.58 255.164,270.809 240.451,286.148 		"/>
		<polygon fill="#BC6D47" points="255.164,270.809 249.509,290.312 240.451,286.148 		"/>
		<polygon fill="#BB6A42" points="255.164,270.809 256.937,280.722 252.351,280.509 		"/>
		<polygon fill="#C37243" points="249.509,290.312 252.351,280.509 256.839,280.749 		"/>
		<polygon fill="#CA7F51" points="249.509,290.312 255.164,292.738 256.839,280.749 		"/>
		<polygon fill="#CD8E66" points="256.937,280.722 265.279,270.021 263.48,278.863 		"/>
		<polygon fill="#BA724D" points="255.164,270.809 265.279,270.021 256.937,280.722 		"/>
		<polygon fill="#DEB68B" points="279.587,266.4 269.398,288.749 283.373,288.114 		"/>
		<polygon fill="#DCB28B" points="283.373,288.114 298.287,288.547 279.587,266.4 		"/>
		<polygon fill="#CD9870" points="309.041,293.778 318.591,289.596 307.964,284.995 		"/>
		<polygon fill="#C27E4C" points="307.964,284.995 298.287,288.547 309.041,293.778 		"/>
		<polygon fill="#D9B287" points="307.964,284.995 301.589,276.604 298.287,288.547 		"/>
		<polygon fill="#D5AE89" points="301.589,276.604 310.558,265.093 314.652,275.873 		"/>
		<polygon fill="#D4AE88" points="301.589,276.604 307.964,284.995 314.652,275.873 		"/>
		<polygon fill="#BE916D" points="305.583,265.337 310.558,265.093 301.589,276.604 		"/>
		<polygon fill="#C49672" points="310.558,265.093 326.875,264.891 314.652,275.873 		"/>
		<polygon fill="#D1AC85" points="314.46,275.376 326.875,264.891 322.478,302.494 		"/>
		<polygon fill="#AE5C37" points="309.041,293.778 309.041,303.992 318.591,289.596 		"/>
		<polygon fill="#C08559" points="309.041,303.992 322.478,302.494 318.591,289.596 		"/>
		<polygon fill="#D9B28E" points="279.587,266.4 298.287,288.547 305.583,265.337 		"/>
		<polygon fill="#D0AA88" points="318.591,289.596 314.652,275.873 307.964,284.995 		"/>
		<polygon fill="#CD7F54" points="273.734,326.871 269.189,308.171 253.054,317.203 		"/>
		<polygon fill="#ECC9A6" points="320.138,409.277 240.451,378.236 242.345,393.979 		"/>
		<polygon fill="#C54837" points="239.5,409.711 230.74,409.711 242.345,393.979 		"/>
		<polygon fill="#983520" points="251.984,468.764 240.451,457.489 212.876,466.414 231.968,466.486 		"/>
		<polygon fill="#E8C6AE" points="215.392,443.789 230.74,409.711 240.451,457.489 		"/>
		<polygon fill="#EBBE9E" points="239.5,409.711 230.74,409.711 236.148,436.505 		"/>
		<polygon fill="#EAC4A1" points="236.148,436.505 239.5,409.711 256.318,463.733 		"/>
		<polygon fill="#D5936F" points="256.318,463.733 236.148,436.505 240.451,457.489 		"/>
		<polygon fill="#E0B78D" points="201.128,504.661 227.142,488.88 277.021,488.88 		"/>
		<polygon fill="#D49F6C" points="277.021,488.88 256.318,463.733 251.984,468.764 		"/>
		<polygon fill="none" points="251.984,468.764 227.142,488.88 277.021,488.88 		"/>
		<polygon fill="#DFB088" points="143.767,463.212 144.52,537.712 178.433,490.961 158.161,473.618 		"/>
		<polygon fill="#E0B289" points="227.142,488.88 277.021,488.88 251.984,468.764 		"/>
		<polygon fill="#BC4231" points="181.228,454.715 199.958,449.686 195.605,466.486 		"/>
		<polygon fill="#B1452E" points="181.228,454.715 162.497,459.745 160.76,465.304 		"/>
		<polygon fill="#E7AA8A" points="215.392,443.789 206.373,448.818 202.25,444.223 		"/>
		<polygon fill="#E7AA8A" points="189.105,444.656 202.25,444.223 199.958,449.686 		"/>
		<polygon fill="#EAB096" points="199.958,449.686 206.373,448.818 202.25,444.223 		"/>
		<polygon fill="#EBC79E" points="296.554,321.873 351.875,346.905 273.734,326.871 		"/>
		<polygon fill="#DFB790" points="309.041,303.992 351.875,346.905 322.478,302.494 		"/>
		<polygon fill="#E0BC91" points="296.554,321.873 309.041,303.992 351.875,346.905 		"/>
		<polygon fill="#ECCBB3" points="369.39,401.777 368.697,382.109 348.226,380.153 		"/>
		<polygon fill="#E6BC9C" points="368.697,382.109 374.941,360.372 348.226,380.153 		"/>
		<polygon fill="#E8C3AC" points="374.941,360.372 350.617,358.972 348.226,380.153 		"/>
		<polygon fill="#DE9F76" points="369.535,335.746 350.8,335.746 350.677,358.972 		"/>
		<polygon fill="#E1BBA0" points="369.39,312.913 350.738,335.746 350.056,305.19 		"/>
		<polygon fill="#D49B6E" points="362.738,291.388 349.621,293.2 350.056,305.19 		"/>
		<polygon fill="#D6B694" points="326.875,264.891 349.621,293.2 322.478,302.494 		"/>
		<polygon fill="#E4C4A3" points="322.478,302.494 351.875,346.905 349.621,293.2 		"/>
		<polygon fill="#DBBD92" points="300.486,212.153 308.81,247.995 349.39,234.815 		"/>
		<path fill="#DBBD92" d="M309.041,247.995"/>
		<polygon fill="#644A35" points="305.583,265.337 309.041,247.995 291.466,244.643 		"/>
		<polygon fill="#8E633D" points="305.583,265.337 326.875,264.891 309.041,247.995 		"/>
		<polygon fill="#43291F" points="279.587,266.4 291.466,244.643 260.929,248.112 		"/>
		<polygon fill="#3A2117" points="250.099,249.342 260.929,248.112 265.279,270.021 		"/>
		<polygon fill="#6D382A" points="250.099,249.342 238.548,250.654 244.072,271.58 		"/>
		<polygon fill="#743E28" points="238.548,250.654 232.974,264.712 244.072,271.58 		"/>
		<path fill="none" stroke="#FDFEFF" stroke-width="0.25" d="M349.621,293.2"/>
		<polygon fill="#E2C5A5" points="309.041,247.995 349.621,234.815 349.621,256.443 		"/>
		<polygon fill="#D4B083" points="326.875,264.891 309.041,247.995 350.535,256.667 		"/>
		<polygon fill="#DFC3A5" points="350.535,256.667 349.621,293.2 326.875,264.891 		"/>
		<polygon fill="#5A4136" points="349.621,293.2 365.347,212.153 349.621,234.815 		"/>
		<polygon fill="#33211B" points="365.347,212.153 311.888,163.873 349.621,234.815 		"/>
		<polygon fill="#E7CAA0" points="311.888,163.873 284.248,138.911 215.033,156.775 		"/>
		<polygon fill="#E5C696" points="214.803,156.775 300.486,212.153 330.775,199.382 		"/>
		<polygon fill="#E7C2A3" points="207.414,264.528 232.974,264.712 204.337,219.974 		"/>
		<path fill="#2D251F" d="M369.39,126.945"/>
		<polygon fill="#E9D3B6" points="205.102,126.945 235.638,124.478 214.803,156.775 		"/>
		<path fill="#EBD3AF" d="M214.803,156.775"/>
		<polygon fill="none" points="261.681,231.505 300.486,212.153 291.466,244.643 		"/>
		<polygon fill="#E7CCA9" points="300.486,212.153 261.681,231.505 291.466,244.643 		"/>
		<polygon fill="#F2D7C3" points="204.337,219.974 261.681,231.505 238.548,250.654 		"/>
		<polygon fill="#F0D7B8" points="204.337,219.974 261.349,186.857 261.681,231.505 		"/>
		<polygon fill="#E9C89D" points="261.681,231.505 300.486,212.153 261.349,186.857 		"/>
		<polygon fill="#EDD4B7" points="204.337,219.974 214.803,156.775 261.349,186.857 		"/>
		<polygon fill="#EBD7BD" points="168.046,181.748 214.803,156.775 204.337,219.974 		"/>
		<polygon fill="#F0D6B7" points="135.624,194.407 168.046,181.748 138.276,244.643 		"/>
		<polygon fill="#EDD7B7" points="135.624,194.407 133.701,158.008 168.046,181.748 		"/>
		<polygon fill="#F1DFC4" points="133.701,158.008 197.005,166.282 168.046,181.748 		"/>
		<polygon fill="#EFDAC3" points="205.102,126.945 197.005,166.282 215.033,156.418 		"/>
		<polygon fill="#F1DEC3" points="133.701,158.008 205.102,126.945 197.005,166.282 		"/>
		<polygon fill="#E4C89A" points="132.062,126.945 205.102,126.945 133.701,158.008 		"/>
		<polygon fill="#EACA9F" points="90.63,156.197 132.062,126.945 114.041,192.874 		"/>
		<polygon fill="#E9CC9E" points="90.63,156.197 99.891,244.643 114.041,192.874 		"/>
		<polygon fill="#1A1614" points="350.535,75.266 369.39,126.945 295.404,90.837 		"/>
		<polygon fill="#292014" points="256.58,101.804 284.248,138.911 295.404,90.837 		"/>
		<polygon fill="#1F1513" points="295.404,90.837 369.39,126.945 284.248,138.911 		"/>
		<polygon fill="#201B17" points="258.548,9.134 184.521,0 256.58,101.804 		"/>
		<polygon fill="#482B21" points="284.248,138.911 235.638,124.478 256.58,101.804 		"/>
		<polygon fill="#2E2220" points="184.521,0 132.062,19.077 256.58,101.804 		"/>
		<polygon fill="#1F1A17" points="68.675,42.662 132.062,19.077 256.58,101.804 		"/>
		<polygon fill="#231612" points="235.638,124.478 198.939,83.663 256.58,101.804 		"/>
		<polygon fill="#2A1813" points="235.638,124.478 204.337,126.945 198.939,83.663 		"/>
		<polygon fill="#2B231F" points="68.675,42.662 198.939,83.663 132.062,126.945 		"/>
		<polygon fill="#2A1712" points="132.062,126.945 204.337,126.945 198.939,83.663 		"/>
		<polygon fill="#1E1916" points="68.675,42.662 35.667,88.099 132.062,126.945 		"/>
		<polygon fill="#1E1916" points="132.062,126.945 35.667,88.099 18.499,114.025 		"/>
		<polygon fill="#211411" points="132.062,126.945 90.63,156.197 18.499,114.025 		"/>
		<polygon fill="#211714" points="90.63,156.197 64.444,192.874 7.4,129.836 		"/>
		<polygon fill="#1C1716" points="7.4,129.836 0,188.374 64.444,192.874 		"/>
		<polygon fill="#292119" points="64.444,192.874 46.014,250.538 25.32,220.132 		"/>
		<polygon fill="#1B1816" points="64.444,192.874 0,188.374 25.32,220.132 		"/>
		<polygon fill="#7C5B48" points="46.014,250.538 42.778,290.032 31.285,279.79 		"/>
		<polygon fill="#604738" points="31.285,279.79 33.369,296.67 42.778,290.032 		"/>
		<polygon fill="#774B38" points="42.778,290.032 42.622,307.663 33.369,296.67 		"/>
		<polygon fill="#DDA77A" points="33.369,297.131 24.395,308.898 42.622,307.663 		"/>
		<polygon fill="#D09578" points="42.622,307.663 44.268,343.649 25.32,321.157 		"/>
		<polygon fill="#DEA57D" points="24.395,308.898 25.32,321.157 42.622,307.663 		"/>
		<polygon fill="#E9C5AA" points="25.32,354.649 30.869,374.708 44.268,343.649 		"/>
		<polygon fill="#ECCFB2" points="44.268,343.649 48.5,387.196 30.869,374.708 		"/>
		<polygon fill="#ECCFB2" points="48.5,387.196 51.333,412.283 37.344,399.682 		"/>
		<polygon fill="#E5C3A4" points="30.869,374.708 37.344,399.682 48.5,387.196 		"/>
		<polygon fill="#E5C798" points="90.63,156.197 64.444,192.874 84.284,251.549 		"/>
		<polygon fill="#DDB785" points="64.444,192.874 46.014,250.538 84.284,251.549 		"/>
		<polygon fill="#E1C096" points="46.014,250.538 42.778,290.032 84.284,251.549 		"/>
		<polygon fill="#E1C09F" points="42.778,290.032 42.622,314.411 65.149,269.326 		"/>
		<polygon fill="#CC8962" points="115.616,310.133 136.237,309.828 128.853,321.032 		"/>
		<polygon fill="#D69C74" points="136.237,309.828 143.565,316.637 155.155,309.395 		"/>
		<polygon fill="#DAAC87" points="143.565,316.637 157.275,312.616 155.502,309.386 		"/>
		<polygon fill="#E0BBA3" points="155.502,309.386 164.35,306.958 157.275,312.616 		"/>
		<polygon fill="#CF936A" points="168.046,309.386 164.35,306.958 157.275,312.616 		"/>
		<polygon fill="#B15C2E" points="172.036,264.528 150.068,291.388 168.046,309.386 		"/>
		<polygon fill="#994D2B" points="133.217,288.013 150.068,291.388 143.445,293.807 		"/>
		<polygon fill="#CE9F74" points="89.66,269.326 108.909,267.766 96.683,293.969 		"/>
		<polygon fill="#DEB88B" points="96.683,293.969 118.361,287.708 108.909,267.766 		"/>
		<polygon fill="#E4C3A1" points="118.361,287.708 133.217,288.013 121.854,269.326 		"/>
		<polygon fill="#CA864A" points="133.217,288.013 145.328,269.326 150.068,291.388 		"/>
		<polygon fill="#B25831" points="145.328,269.326 172.036,264.528 150.068,291.388 		"/>
		<polygon fill="#582B1D" points="172.036,264.528 138.276,244.643 145.328,269.326 		"/>
		<polygon fill="#41251C" points="138.276,244.643 121.854,269.326 145.328,269.326 		"/>
		<polygon fill="#3D291D" points="138.276,244.643 120.311,244.643 121.854,269.326 		"/>
		<polygon fill="#5F4233" points="120.311,244.643 99.891,244.643 121.854,269.326 		"/>
		<polygon fill="#4E3229" points="99.891,244.643 84.284,251.549 121.854,269.326 		"/>
		<polygon fill="#573929" points="84.284,251.549 89.66,269.326 110.874,264.13 		"/>
		<polygon fill="#6A402F" points="89.66,269.326 108.909,267.766 110.874,264.13 		"/>
		<polygon fill="#653D31" points="108.909,267.766 121.854,269.326 110.874,264.13 		"/>
		<polygon fill="#694230" points="84.284,251.549 65.149,269.326 89.66,269.326 		"/>
		<polygon fill="#EBC398" points="168.046,309.386 187.182,324.301 187.182,308.115 		"/>
		<polygon fill="#CA805C" points="96.054,310.146 104.285,316.208 115.616,310.133 		"/>
		<polygon fill="#DCB78C" points="42.622,314.411 87.468,301.791 65.149,269.326 		"/>
		<polygon fill="#E9CBA4" points="42.622,314.411 45.731,362.69 87.468,301.791 		"/>
		<polygon fill="#E9C6AA" points="45.731,362.69 51.333,412.283 138.193,372.233 		"/>
		<polygon fill="#E4B88D" points="87.468,301.791 95.729,309.828 45.731,362.69 		"/>
		<polygon fill="#F1D4B5" points="95.729,309.828 95.162,367.792 45.731,362.69 		"/>
		<polygon fill="#F0CDB4" points="95.729,309.828 116.28,324.907 95.162,367.792 		"/>
		<polygon fill="#F1CEB5" points="116.28,324.907 138.193,372.233 95.162,367.792 		"/>
		<polygon fill="#EAC399" points="116.28,324.907 187.182,324.301 181.401,345.285 		"/>
		<polygon fill="#F1CEB1" points="116.28,324.907 181.401,345.285 138.193,372.233 		"/>
		<polygon fill="#EAC5A4" points="51.333,412.283 62.085,429.276 138.193,372.233 		"/>
		<polygon fill="#F0CFB2" points="138.193,372.233 157.222,392.564 160.243,382.225 		"/>
		<polygon fill="#F1D0B1" points="160.191,382.398 164.579,371.125 138.193,372.233 		"/>
		<polygon fill="#EAB895" points="164.579,371.125 172.036,358.466 159.151,359.162 		"/>
		<polygon fill="#EFCBAE" points="159.151,359.162 138.193,372.233 164.579,371.125 		"/>
		<polygon fill="#EAC098" points="159.151,359.162 181.401,345.285 172.036,358.466 		"/>
		<polygon fill="#D8A781" points="143.767,463.212 149.218,431.824 162.497,459.745 		"/>
		<polygon fill="#E4C3A8" points="160.243,409.509 149.218,431.824 162.497,459.745 		"/>
		<polyline fill="#E9C3AD" points="161.233,431.569 160.243,409.509 168.534,412.242 162.497,459.745 161.233,431.569 		"/>
		<polygon fill="#E8C7B1" points="168.534,412.242 197.702,413.898 189.105,444.656 		"/>
		<polygon fill="#E8C4B0" points="162.497,459.745 189.105,444.656 168.534,412.242 		"/>
		<polygon fill="#EBC3A9" points="160.243,409.509 157.122,403.035 128.788,425.06 		"/>
		<polygon fill="#EDCBAB" points="157.122,403.035 157.222,392.564 130.646,391.067 		"/>
		<polygon fill="#F0CFB3" points="130.646,391.067 138.193,372.233 157.222,392.564 		"/>
		<polygon fill="#E5BC97" points="62.085,429.276 77.405,486.277 120.554,385.455 		"/>
		<polygon fill="#EFD0B1" points="120.554,385.455 130.646,391.067 138.193,372.233 		"/>
		<polygon fill="#EBC8AA" points="120.554,385.455 128.788,425.06 157.122,403.035 		"/>
		<polygon fill="#EBC5AB" points="128.788,425.06 77.405,486.277 120.554,385.455 		"/>
		<polygon fill="#E9C3AD" points="128.788,425.06 149.218,431.824 160.243,409.509 		"/>
		<polygon fill="#E0BFA0" points="143.767,463.212 128.788,425.06 149.218,431.824 		"/>
		<polygon fill="#E5BE93" points="143.767,463.212 97.825,461.948 128.788,425.06 		"/>
		<polygon fill="#D6AE88" points="77.405,486.277 102.666,527.205 97.825,461.948 		"/>
		<polygon fill="#E0B692" points="97.825,461.948 143.767,463.212 102.666,527.205 		"/>
		<polygon fill="#EDCBAC" points="307.761,527.205 276.574,555.382 266.144,534.6 		"/>
		<polygon fill="#DFB088" points="276.574,555.382 251.398,570.738 266.144,534.6 		"/>
		<polygon fill="#E0B289" points="266.144,534.6 200.786,538.262 251.398,570.738 		"/>
		<polygon fill="#DFB088" points="200.786,538.262 144.355,534.184 155.649,567.974 		"/>
		<polygon fill="#DFB088" points="155.649,567.974 201.858,576.574 200.786,538.262 		"/>
		<polygon fill="#DEB794" points="201.858,576.574 251.398,570.738 200.786,538.262 		"/>
		<polygon fill="#DFB98A" points="155.649,567.974 102.666,527.205 144.355,534.184 		"/>
	</g>
	<g opacity="0.1">
		<polygon fill="#2C3E50" points="267.417,269.149 246.21,270.708 257.302,269.937 		"/>
		<polygon fill="#2C3E50" points="287.376,306.068 287.468,306.125 291.24,305.646 		"/>
		<polygon fill="#2C3E50" points="263.068,247.241 293.46,243.788 293.46,243.788 240.687,249.782 252.238,248.47 		"/>
		<polygon fill="#2C3E50" points="263.068,290.047 257.302,291.865 271.537,287.878 		"/>
		<polygon fill="#2C3E50" points="351.529,233.944 311.034,247.097 311.179,247.124 351.759,233.944 332.914,198.511 
			332.725,198.59 		"/>
		<polygon fill="#2C3E50" points="242.589,377.363 221.39,336.262 234.873,362.449 		"/>
		<polygon fill="#2C3E50" points="254.49,279.638 254.49,279.638 258.978,279.878 259.075,279.851 		"/>
		<polygon fill="#2C3E50" points="351.759,255.604 351.759,255.571 311.179,247.124 		"/>
		<polygon fill="#2C3E50" points="320.73,288.724 324.617,301.621 318.278,280.183 		"/>
		<polygon fill="#2C3E50" points="255.327,316.256 238.222,308.396 275.873,325.998 255.193,316.33 		"/>
		<polygon fill="#2C3E50" points="206.476,126.074 207.241,126.074 237.777,123.606 		"/>
		<polygon fill="#2C3E50" points="284.614,287.284 300.425,287.675 285.511,287.243 		"/>
		<polygon fill="#2C3E50" points="313.664,162.975 217.171,155.903 313.896,163.187 		"/>
		<polygon fill="#2C3E50" points="352.755,358.1 352.816,358.023 352.822,356.941 350.926,374.309 		"/>
		<polygon fill="#2C3E50" points="332.914,198.511 217.171,155.903 237.777,123.606 216.942,155.903 332.914,198.511 		"/>
		<polygon fill="#2C3E50" points="232.32,465.607 254.123,467.891 234.107,465.613 		"/>
		<polygon fill="#2C3E50" points="285.087,304.65 285.087,304.65 287.097,292.02 		"/>
		<polygon fill="#2C3E50" points="287.097,292.02 292.841,292.906 276.544,290.047 		"/>
		<polygon fill="#2C3E50" points="230.535,279.892 230.534,279.894 242.589,285.276 237.419,282.63 		"/>
		<polygon fill="#2C3E50" points="313.664,162.975 313.896,163.187 332.882,198.452 314.028,163.003 314.026,163.001 		"/>
		<polygon fill="#2C3E50" points="209.552,263.657 200.794,263.657 200.794,263.737 235.113,263.841 		"/>
		<polygon fill="#2C3E50" points="217.531,442.916 200.794,414.639 200.794,414.641 211.539,432.814 		"/>
		<polygon fill="#2C3E50" points="217.531,442.916 200.794,443.469 200.794,443.469 204.388,443.35 		"/>
		<polygon fill="#2C3E50" points="200.794,369.09 200.794,369.09 203.345,372.738 		"/>
		<polygon fill="#2C3E50" points="216.878,155.707 200.794,164.508 200.794,164.527 216.942,155.903 		"/>
		<polygon fill="#2C3E50" points="258.718,100.933 200.794,82.701 200.794,82.702 201.078,82.791 		"/>
		<polygon fill="#2C3E50" points="200.794,263.737 200.794,296.367 235.113,263.841 		"/>
		<polygon fill="#2C3E50" points="230.535,279.892 230.5,279.878 230.534,279.894 		"/>
		<polygon fill="#2C3E50" points="226.554,293.777 230.5,279.878 235.113,263.841 200.794,296.367 200.794,307.242 222.732,307.242 
					"/>
		<polygon fill="#2C3E50" points="200.794,307.242 200.794,317.869 222.732,307.242 		"/>
		<polygon fill="#2C3E50" points="222.732,307.242 200.794,317.869 200.794,328.02 221.39,336.262 		"/>
		<polygon fill="#2C3E50" points="200.794,328.02 200.794,340.697 221.39,336.262 		"/>
		<polygon fill="#2C3E50" points="200.794,375.189 200.794,379.621 203.345,372.738 		"/>
		<polygon fill="#2C3E50" points="200.794,369.09 200.794,373.281 203.345,372.738 		"/>
		<polygon fill="#2C3E50" points="215.632,400.943 213.021,397.914 200.794,411.932 200.794,412.658 219.525,405.457 		"/>
		<polygon fill="#2C3E50" points="200.794,396.93 200.794,411.932 213.021,397.914 		"/>
		<polygon fill="#2C3E50" points="215.632,400.943 219.525,405.457 225.681,403.854 		"/>
		<polygon fill="#2C3E50" points="225.681,403.854 226.287,396.695 215.632,400.943 		"/>
		<polygon fill="#2C3E50" points="225.681,403.854 232.878,408.838 226.287,396.695 		"/>
		<polygon fill="#2C3E50" points="226.287,396.695 232.878,408.838 244.484,393.105 		"/>
		<polygon fill="#2C3E50" points="242.589,377.363 238.398,380.221 223.73,390.086 244.484,393.105 		"/>
		<polygon fill="#2C3E50" points="223.73,390.086 226.287,396.695 244.484,393.105 		"/>
		<polygon fill="#2C3E50" points="206.414,379.879 203.345,372.738 213.021,397.914 223.73,390.086 		"/>
		<polygon fill="#2C3E50" points="222.906,379.832 203.345,372.738 206.414,379.879 		"/>
		<polygon fill="#2C3E50" points="222.906,379.832 206.414,379.879 223.73,390.086 238.398,380.221 		"/>
		<polygon fill="#2C3E50" points="234.873,362.449 203.345,372.738 242.589,377.363 		"/>
		<polygon fill="#2C3E50" points="221.39,336.262 203.345,372.738 234.873,362.449 		"/>
		<polygon fill="#2C3E50" points="287.468,306.125 275.873,325.998 298.693,321 		"/>
		<polygon fill="#2C3E50" points="285.642,306.258 284.818,306.348 284.823,306.318 271.328,307.299 275.873,325.998 
			287.468,306.125 		"/>
		<polygon fill="#2C3E50" points="291.24,305.646 287.468,306.125 298.693,321 311.179,303.119 295.673,305.164 		"/>
		<polygon fill="#2C3E50" points="292.841,292.906 311.179,303.119 311.179,292.906 		"/>
		<polygon fill="#2C3E50" points="311.179,292.906 300.425,287.675 292.841,292.906 		"/>
		<polygon fill="#2C3E50" points="283.155,287.351 292.841,292.906 300.425,287.675 284.614,287.284 		"/>
		<polygon fill="#2C3E50" points="282.673,287.372 271.537,287.878 276.544,290.047 		"/>
		<polygon fill="#2C3E50" points="282.673,287.372 276.544,290.047 292.841,292.906 283.155,287.351 		"/>
		<polygon fill="#2C3E50" points="271.537,287.878 257.302,291.865 263.488,293.777 		"/>
		<polygon fill="#2C3E50" points="271.537,287.878 263.488,293.777 276.544,290.047 		"/>
		<polygon fill="#2C3E50" points="239.73,301.578 238.222,308.396 243.66,302.734 		"/>
		<polygon fill="#2C3E50" points="257.302,291.865 247.73,297.156 239.73,301.578 243.66,302.734 		"/>
		<polygon fill="#2C3E50" points="243.66,302.734 238.222,308.396 246.168,308.133 		"/>
		<polygon fill="#2C3E50" points="243.66,302.734 246.168,308.133 246.255,308.131 250.365,299.705 		"/>
		<polygon fill="#2C3E50" points="250.365,299.705 246.255,308.131 254.235,307.865 250.368,299.703 		"/>
		<polygon fill="#2C3E50" points="250.368,299.703 254.235,307.865 254.309,307.863 263.488,293.777 		"/>
		<polygon fill="#2C3E50" points="266.072,300.535 263.488,293.777 254.309,307.863 271.328,307.299 268.169,307.352 		"/>
		<polygon fill="#2C3E50" points="287.097,292.02 285.087,304.65 287.376,306.068 291.24,305.646 295.673,305.164 		"/>
		<polygon fill="#2C3E50" points="284.818,306.348 285.642,306.258 284.823,306.318 		"/>
		<polygon fill="#2C3E50" points="295.673,305.164 311.179,303.119 292.841,292.906 		"/>
		<polygon fill="#2C3E50" points="200.794,473.885 200.794,486.219 205.043,485.404 		"/>
		<polygon fill="#2C3E50" points="229.281,488.008 200.794,467.779 200.794,473.885 205.043,485.404 		"/>
		<polygon fill="#2C3E50" points="205.043,485.404 200.794,486.219 200.794,502.297 203.267,503.789 		"/>
		<polygon fill="#2C3E50" points="205.043,485.404 203.267,503.789 229.281,488.008 		"/>
		<polygon fill="#2C3E50" points="232.32,465.607 229.281,465.596 229.281,488.008 254.123,467.891 		"/>
		<polygon fill="#2C3E50" points="229.281,465.596 215.015,465.541 200.794,465.602 200.794,467.779 229.281,488.008 		"/>
		<polygon fill="#2C3E50" points="254.123,467.891 258.457,462.861 242.589,456.617 		"/>
		<polygon fill="#2C3E50" points="217.531,442.916 208.511,447.945 242.589,456.617 		"/>
		<polygon fill="#2C3E50" points="242.589,456.617 208.511,447.945 215.015,465.541 		"/>
		<polygon fill="#2C3E50" points="208.511,447.945 200.794,460.607 200.794,465.602 215.015,465.541 		"/>
		<polygon fill="#2C3E50" points="200.794,448.209 200.794,449.162 202.096,448.813 		"/>
		<polygon fill="#2C3E50" points="202.096,448.813 200.794,453.838 200.794,460.607 208.511,447.945 		"/>
		<polygon fill="#2C3E50" points="246.21,270.708 235.113,263.841 237.419,282.63 		"/>
		<polygon fill="#2C3E50" points="281.726,265.528 267.417,269.149 271.537,287.878 		"/>
		<polygon fill="#2C3E50" points="206.476,219.103 235.113,263.841 240.687,249.782 		"/>
		<polygon fill="#2C3E50" points="293.375,243.772 293.4,243.681 263.82,230.634 240.687,249.782 293.46,243.788 		"/>
		<polygon fill="#2C3E50" points="310.938,247.077 302.625,211.282 293.605,243.772 		"/>
		<polygon fill="#2C3E50" points="293.4,243.681 293.375,243.772 293.46,243.788 293.46,243.788 293.605,243.772 		"/>
		<polygon fill="#2C3E50" points="252.238,248.47 246.21,270.708 267.417,269.149 		"/>
		<polygon fill="#2C3E50" points="263.068,247.241 267.417,269.149 281.726,265.528 		"/>
		<polygon fill="#2C3E50" points="293.605,243.772 281.726,265.528 307.722,264.466 		"/>
		<polygon fill="#2C3E50" points="206.476,219.103 200.794,226.939 200.794,263.657 209.552,263.657 		"/>
		<polygon fill="#2C3E50" points="200.794,213.118 200.794,226.939 206.476,219.103 		"/>
		<polygon fill="#2C3E50" points="217.171,155.903 286.386,138.039 237.777,123.606 		"/>
		<line fill="#2C3E50" x1="313.664" y1="162.975" x2="313.896" y2="163.187"/>
		<polygon fill="#2C3E50" points="217.171,155.903 332.914,198.511 332.882,198.452 313.896,163.187 		"/>
		<polygon fill="#2C3E50" points="332.725,198.59 302.625,211.282 351.529,233.944 		"/>
		<polygon fill="#2C3E50" points="275.873,325.998 221.39,336.262 242.589,377.363 		"/>
		<polygon fill="#2C3E50" points="242.589,377.363 322.277,408.404 275.873,325.998 		"/>
		<polygon fill="#2C3E50" points="322.277,408.404 352.868,348.283 352.881,345.742 275.873,325.998 		"/>
		<polygon fill="#2C3E50" points="350.365,379.281 350.926,374.309 352.822,356.941 352.868,348.283 322.277,408.404 
			343.435,442.916 347.521,405.498 347.509,405.5 		"/>
		<polygon fill="#2C3E50" points="279.16,488.008 310.71,526.332 343.435,442.916 258.457,462.861 		"/>
		<polygon fill="#2C3E50" points="258.457,462.861 343.435,442.916 322.277,408.404 		"/>
		<polygon fill="#2C3E50" points="241.638,408.838 322.277,408.404 244.484,393.105 		"/>
		<polygon fill="#2C3E50" points="258.457,462.861 322.277,408.404 241.638,408.838 		"/>
		<polygon fill="#2C3E50" points="219.525,405.457 217.531,442.916 232.878,408.838 		"/>
		<polygon fill="#2C3E50" points="219.525,405.457 200.794,412.658 200.794,414.639 217.531,442.916 		"/>
		<polygon fill="#2C3E50" points="200.794,414.641 200.794,438.621 211.539,432.814 		"/>
		<polygon fill="#2C3E50" points="211.539,432.814 200.794,438.621 200.794,443.469 217.531,442.916 		"/>
		<polygon fill="#2C3E50" points="279.16,488.008 203.267,503.789 203.304,537.367 211.706,536.896 		"/>
		<polygon fill="#2C3E50" points="211.706,536.896 268.283,533.727 269.755,533.465 279.16,488.008 		"/>
		<polygon fill="#2C3E50" points="269.755,533.465 309.9,526.332 309.561,526.639 310.71,526.332 279.16,488.008 		"/>
		<polygon fill="#2C3E50" points="203.304,537.367 203.267,503.789 200.794,505.232 200.794,537.234 202.924,537.389 		"/>
		<polygon fill="#2C3E50" points="200.794,502.297 200.794,505.232 203.267,503.789 		"/>
		<polygon fill="#2C3E50" points="350.365,379.281 347.509,405.5 347.521,405.498 371.529,400.904 		"/>
		<polygon fill="#2C3E50" points="352.816,358.023 352.755,358.1 377.08,359.5 371.625,334.934 352.816,358.1 		"/>
		<polygon fill="#2C3E50" points="353.544,334.873 371.611,334.873 371.529,312.041 353.512,334.096 		"/>
		<polygon fill="#2C3E50" points="352.263,304.346 371.529,312.041 364.876,290.516 352.259,304.248 		"/>
		<polygon fill="#2C3E50" points="314.027,163.001 367.486,211.282 371.529,126.074 286.386,138.039 		"/>
		<polygon fill="#2C3E50" points="314.028,163.003 314.027,163.001 314.026,163.001 		"/>
		<polygon fill="#2C3E50" points="297.542,89.966 352.673,74.395 260.687,8.263 258.718,100.933 		"/>
		<polygon fill="#2C3E50" points="285.087,304.65 285.087,304.65 285.027,305.033 276.609,299.396 271.328,307.299 284.823,306.318 
			285.642,306.258 287.468,306.125 287.376,306.068 		"/>
		<polygon fill="#2C3E50" points="266.072,300.535 271.328,307.299 276.609,299.396 		"/>
		<polygon fill="#2C3E50" points="263.488,293.777 276.609,299.396 276.544,290.047 		"/>
		<polygon fill="#2C3E50" points="266.072,300.535 276.609,299.396 263.488,293.777 		"/>
		<polygon fill="#2C3E50" points="295.673,305.164 292.841,292.906 287.097,292.02 		"/>
		<polygon fill="#2C3E50" points="203.345,372.738 200.794,379.621 200.794,396.93 213.021,397.914 		"/>
		<polygon fill="#2C3E50" points="225.681,403.854 219.525,405.457 232.878,408.838 		"/>
		<polygon fill="#2C3E50" points="238.398,380.221 242.589,377.363 203.345,372.738 222.906,379.832 		"/>
		<polygon fill="#2C3E50" points="221.39,336.262 200.794,340.697 200.794,369.09 203.345,372.738 		"/>
		<polygon fill="#2C3E50" points="200.794,373.281 200.794,375.189 203.345,372.738 		"/>
		<polygon fill="#2C3E50" points="268.169,307.352 271.328,307.299 266.072,300.535 		"/>
		<polygon fill="#2C3E50" points="276.544,290.047 276.609,299.396 287.097,292.02 		"/>
		<polygon fill="#2C3E50" points="276.609,299.396 285.027,305.033 285.087,304.65 287.097,292.02 		"/>
		<polygon fill="#2C3E50" points="226.287,396.695 223.73,390.086 213.021,397.914 215.632,400.943 		"/>
		<polygon fill="#2C3E50" points="250.368,299.703 263.488,293.777 257.302,291.865 243.66,302.734 250.365,299.705 		"/>
		<polygon fill="#2C3E50" points="271.328,307.299 254.309,307.863 254.235,307.865 246.255,308.131 246.168,308.133 
			238.222,308.396 255.327,316.256 		"/>
		<polygon fill="#2C3E50" points="238.222,321 221.39,336.262 275.873,325.998 		"/>
		<polygon fill="#2C3E50" points="238.222,321 275.873,325.998 238.222,308.396 		"/>
		<polygon fill="#2C3E50" points="222.732,307.242 221.39,336.262 238.222,321 		"/>
		<polygon fill="#2C3E50" points="238.222,308.396 222.732,307.242 238.222,321 		"/>
		<polygon fill="#2C3E50" points="226.554,293.777 222.732,307.242 238.222,308.396 		"/>
		<polygon fill="#2C3E50" points="238.222,308.396 239.73,301.578 226.554,293.777 		"/>
		<polygon fill="#2C3E50" points="239.73,301.578 230.5,279.878 226.554,293.777 		"/>
		<polygon fill="#2C3E50" points="263.068,290.047 271.537,287.878 267.417,269.149 265.619,277.991 		"/>
		<polygon fill="#2C3E50" points="242.589,285.276 239.73,301.578 247.73,297.156 		"/>
		<polygon fill="#2C3E50" points="239.73,301.578 242.589,285.276 230.534,279.894 230.5,279.878 		"/>
		<polygon fill="#2C3E50" points="237.419,282.63 235.113,263.841 230.5,279.878 230.535,279.892 		"/>
		<polygon fill="#2C3E50" points="237.419,282.63 242.589,285.276 246.21,270.708 		"/>
		<polygon fill="#2C3E50" points="247.73,297.156 257.302,291.865 251.648,289.439 242.589,285.276 		"/>
		<polygon fill="#2C3E50" points="258.978,279.878 257.302,291.865 263.068,290.047 		"/>
		<polygon fill="#2C3E50" points="259.076,279.851 259.075,279.851 258.978,279.878 263.068,290.047 265.619,277.991 		"/>
		<polygon fill="#2C3E50" points="246.21,270.708 242.589,285.276 257.302,269.937 		"/>
		<polygon fill="#2C3E50" points="254.49,279.638 254.49,279.638 254.49,279.638 		"/>
		<polygon fill="#2C3E50" points="254.49,279.638 257.302,269.937 242.589,285.276 251.648,289.439 		"/>
		<polygon fill="#2C3E50" points="259.075,279.851 259.076,279.851 257.302,269.937 254.49,279.638 254.49,279.638 		"/>
		<polygon fill="#2C3E50" points="258.978,279.878 254.49,279.638 254.49,279.638 251.648,289.439 		"/>
		<polygon fill="#2C3E50" points="251.648,289.439 257.302,291.865 258.978,279.878 		"/>
		<polygon fill="#2C3E50" points="259.076,279.851 265.619,277.991 267.417,269.149 		"/>
		<polygon fill="#2C3E50" points="259.076,279.851 267.417,269.149 257.302,269.937 		"/>
		<polygon fill="#2C3E50" points="282.673,287.372 283.155,287.351 284.614,287.284 285.511,287.243 281.726,265.528 
			271.537,287.878 		"/>
		<polygon fill="#2C3E50" points="300.425,287.675 281.726,265.528 285.511,287.243 		"/>
		<polygon fill="#2C3E50" points="311.179,292.906 320.73,288.724 310.103,284.124 		"/>
		<polygon fill="#2C3E50" points="310.103,284.124 300.425,287.675 311.179,292.906 		"/>
		<polygon fill="#2C3E50" points="304.047,276.153 300.425,287.675 310.103,284.124 		"/>
		<polygon fill="#2C3E50" points="304.188,275.708 316.747,275.003 316.599,274.505 316.601,274.503 312.75,264.36 312.585,264.364 
			304.486,274.761 		"/>
		<polygon fill="#2C3E50" points="304.047,276.153 310.103,284.124 316.759,275.044 316.747,275.003 304.188,275.708 		"/>
		<polygon fill="#2C3E50" points="312.585,264.364 307.722,264.466 304.486,274.761 		"/>
		<polygon fill="#2C3E50" points="316.601,274.503 329.013,264.019 312.75,264.36 		"/>
		<polygon fill="#2C3E50" points="316.599,274.505 316.747,275.003 316.759,275.044 316.791,275.001 318.278,280.183 
			324.617,301.621 329.013,264.019 316.601,274.503 		"/>
		<polygon fill="#2C3E50" points="311.179,303.119 320.73,288.724 311.179,292.906 		"/>
		<polygon fill="#2C3E50" points="311.179,303.119 324.617,301.621 320.73,288.724 		"/>
		<polygon fill="#2C3E50" points="300.425,287.675 304.047,276.153 304.188,275.708 304.486,274.761 307.722,264.466 
			281.726,265.528 		"/>
		<polygon fill="#2C3E50" points="320.73,288.724 318.278,280.183 316.791,275.001 316.759,275.044 310.103,284.124 		"/>
		<polygon fill="#2C3E50" points="255.327,316.256 255.193,316.33 275.873,325.998 271.328,307.299 		"/>
		<polygon fill="#2C3E50" points="244.484,393.105 322.277,408.404 242.589,377.363 		"/>
		<polygon fill="#2C3E50" points="244.484,393.105 232.878,408.838 241.638,408.838 		"/>
		<polygon fill="#2C3E50" points="234.107,465.613 254.123,467.891 242.589,456.617 215.015,465.541 229.281,465.596 
			232.32,465.607 		"/>
		<polygon fill="#2C3E50" points="238.287,435.633 232.878,408.838 217.531,442.916 242.589,456.617 		"/>
		<polygon fill="#2C3E50" points="241.638,408.838 232.878,408.838 238.287,435.633 		"/>
		<polygon fill="#2C3E50" points="238.287,435.633 258.457,462.861 241.638,408.838 		"/>
		<polygon fill="#2C3E50" points="238.287,435.633 242.589,456.617 258.457,462.861 		"/>
		<polygon fill="#2C3E50" points="279.16,488.008 229.281,488.008 203.267,503.789 		"/>
		<polygon fill="#2C3E50" points="279.16,488.008 258.457,462.861 254.123,467.891 		"/>
		<polygon fill="#2C3E50" points="279.16,488.008 254.123,467.891 229.281,488.008 		"/>
		<polygon fill="#2C3E50" points="200.794,449.162 200.794,453.838 202.096,448.813 		"/>
		<polygon fill="#2C3E50" points="204.388,443.35 208.511,447.945 217.531,442.916 		"/>
		<polygon fill="#2C3E50" points="204.388,443.35 200.794,443.469 200.794,448.209 202.096,448.813 		"/>
		<polygon fill="#2C3E50" points="202.096,448.813 208.511,447.945 204.388,443.35 		"/>
		<polygon fill="#2C3E50" points="275.873,325.998 352.881,345.742 352.882,345.521 298.693,321 		"/>
		<polygon fill="#2C3E50" points="352.886,344.902 352.889,344.334 324.617,301.621 311.179,303.119 		"/>
		<polygon fill="#2C3E50" points="298.693,321 352.882,345.521 352.886,344.902 311.179,303.119 		"/>
		<polygon fill="#2C3E50" points="350.365,379.281 371.529,400.904 370.835,381.236 		"/>
		<polygon fill="#2C3E50" points="350.365,379.281 370.835,381.236 377.08,359.5 		"/>
		<polygon fill="#2C3E50" points="350.926,374.309 350.365,379.281 377.08,359.5 352.755,358.1 		"/>
		<polygon fill="#2C3E50" points="354.013,346.033 352.889,344.334 352.886,344.902 352.882,345.521 352.881,345.742 
			352.868,348.283 352.822,356.941 352.816,358.023 352.816,358.1 371.625,334.934 371.673,334.873 371.611,334.873 
			353.544,334.873 		"/>
		<polygon fill="#2C3E50" points="353.512,334.096 371.529,312.041 352.263,304.346 		"/>
		<polygon fill="#2C3E50" points="364.876,290.516 351.759,292.328 352.259,304.248 		"/>
		<polygon fill="#2C3E50" points="324.617,301.621 351.759,292.328 329.013,264.019 		"/>
		<polygon fill="#2C3E50" points="352.889,344.334 354.013,346.033 353.544,334.873 353.512,334.096 352.263,304.346 
			352.259,304.248 351.759,292.328 324.617,301.621 		"/>
		<polygon fill="#2C3E50" points="311.034,247.097 351.529,233.944 302.625,211.282 310.938,247.077 		"/>
		<polygon fill="#2C3E50" points="293.605,243.772 307.722,264.466 311.179,247.124 311.034,247.097 310.938,247.077 		"/>
		<polygon fill="#2C3E50" points="307.722,264.466 312.585,264.364 312.75,264.36 329.013,264.019 311.179,247.124 		"/>
		<polygon fill="#2C3E50" points="293.605,243.772 293.46,243.788 263.068,247.241 281.726,265.528 		"/>
		<polygon fill="#2C3E50" points="252.238,248.47 267.417,269.149 263.068,247.241 		"/>
		<polygon fill="#2C3E50" points="240.687,249.782 246.21,270.708 252.238,248.47 		"/>
		<polygon fill="#2C3E50" points="240.687,249.782 235.113,263.841 246.21,270.708 		"/>
		<polygon fill="#2C3E50" points="351.759,255.571 351.759,233.944 311.179,247.124 		"/>
		<polygon fill="#2C3E50" points="329.013,264.019 351.759,256.112 351.759,255.604 311.179,247.124 		"/>
		<polygon fill="#2C3E50" points="329.013,264.019 351.759,292.328 351.759,256.112 		"/>
		<polygon fill="#2C3E50" points="351.759,255.571 351.759,255.604 351.759,256.112 351.759,292.328 367.486,211.282 
			351.759,233.944 		"/>
		<polygon fill="#2C3E50" points="314.028,163.003 332.882,198.452 332.914,198.511 332.914,198.511 332.914,198.511 
			332.914,198.511 351.759,233.944 367.486,211.282 314.027,163.001 		"/>
		<polygon fill="#2C3E50" points="313.664,162.975 314.026,163.001 314.027,163.001 286.386,138.039 217.171,155.903 		"/>
		<polygon fill="#2C3E50" points="302.625,211.282 332.725,198.59 332.914,198.511 332.914,198.511 332.914,198.511 
			216.942,155.903 263.488,185.986 		"/>
		<polygon fill="#2C3E50" points="209.552,263.657 235.113,263.841 206.476,219.103 		"/>
		<polygon fill="#2C3E50" points="207.241,126.074 217.171,155.547 216.878,155.707 216.942,155.903 237.777,123.606 		"/>
		<polygon fill="#2C3E50" points="293.605,243.772 302.625,211.282 263.82,230.634 293.4,243.681 		"/>
		<polygon fill="#2C3E50" points="263.82,230.634 206.476,219.103 240.687,249.782 		"/>
		<polygon fill="#2C3E50" points="263.488,185.986 206.476,219.103 263.82,230.634 		"/>
		<polygon fill="#2C3E50" points="263.488,185.986 263.82,230.634 302.625,211.282 		"/>
		<polygon fill="#2C3E50" points="263.488,185.986 216.942,155.903 206.476,219.103 		"/>
		<polygon fill="#2C3E50" points="216.942,155.903 200.794,164.527 200.794,213.118 206.476,219.103 		"/>
		<polygon fill="#2C3E50" points="217.171,155.547 207.241,126.074 200.794,157.393 200.794,164.508 216.878,155.707 		"/>
		<polygon fill="#2C3E50" points="200.794,128.878 200.794,157.393 207.241,126.074 		"/>
		<polygon fill="#2C3E50" points="206.476,126.074 200.794,126.074 200.794,128.878 207.241,126.074 		"/>
		<polygon fill="#2C3E50" points="371.529,126.074 352.673,74.395 297.542,89.966 		"/>
		<polygon fill="#2C3E50" points="297.542,89.966 258.718,100.933 286.386,138.039 		"/>
		<polygon fill="#2C3E50" points="297.542,89.966 286.386,138.039 371.529,126.074 		"/>
		<polygon fill="#2C3E50" points="260.687,8.263 200.794,0.873 200.794,19.099 258.718,100.933 		"/>
		<polygon fill="#2C3E50" points="286.386,138.039 258.718,100.933 237.777,123.606 		"/>
		<polygon fill="#2C3E50" points="200.794,19.099 200.794,62.449 258.718,100.933 		"/>
		<polygon fill="#2C3E50" points="200.794,62.449 200.794,82.701 258.718,100.933 		"/>
		<polygon fill="#2C3E50" points="258.718,100.933 201.078,82.791 237.777,123.606 		"/>
		<polygon fill="#2C3E50" points="201.078,82.791 206.476,126.074 237.777,123.606 		"/>
		<polygon fill="#2C3E50" points="200.794,82.702 200.794,82.975 201.078,82.791 		"/>
		<polygon fill="#2C3E50" points="201.078,82.791 200.794,82.975 200.794,126.074 206.476,126.074 		"/>
		<polygon fill="#2C3E50" points="269.755,533.465 268.283,533.727 278.712,554.51 309.561,526.639 309.9,526.332 		"/>
		<polygon fill="#2C3E50" points="268.283,533.727 253.537,569.865 278.712,554.51 		"/>
		<polygon fill="#2C3E50" points="268.283,533.727 211.706,536.896 203.304,537.367 202.924,537.389 253.537,569.865 		"/>
		<polygon fill="#2C3E50" points="200.794,537.234 200.794,538.791 202.924,537.389 		"/>
		<polygon fill="#2C3E50" points="202.924,537.389 200.794,538.791 200.794,575.105 203.997,575.701 		"/>
		<polygon fill="#2C3E50" points="202.924,537.389 203.997,575.701 253.537,569.865 		"/>
	</g>
</g>
</svg>
