<?xml version="1.0" encoding="utf-8"?>
<!-- Generator: Adobe Illustrator 16.0.0, SVG Export Plug-In . SVG Version: 6.00 Build 0)  -->
<!DOCTYPE svg PUBLIC "-//W3C//DTD SVG 1.1//EN" "http://www.w3.org/Graphics/SVG/1.1/DTD/svg11.dtd">
<svg version="1.1" id="Layer_1" xmlns="http://www.w3.org/2000/svg" xmlns:xlink="http://www.w3.org/1999/xlink" x="0px" y="0px"
	 width="200px" height="200px" viewBox="0 0 200 200" enable-background="new 0 0 200 200" xml:space="preserve">
<g id="mysqli">
	<path fill="#EEF3F5" d="M-122.283,195.107c-35.62,0-66.705-7.146-83.404-17.762v36.711c16.703,10.63,47.787,16.717,83.404,16.717
		c35.629,0,66.725-7.152,83.427-17.775v-35.667C-55.559,187.962-86.654,195.107-122.283,195.107z"/>
	<path fill="#EEF3F5" d="M-122.283,148.135c-35.62,0-66.705-7.152-83.404-17.776v36.726c16.703,10.623,47.787,16.71,83.404,16.71
		c35.629,0,66.725-7.152,83.427-17.775v-35.66C-55.559,140.983-86.654,148.135-122.283,148.135z"/>
	<path fill="#EEF3F5" d="M-122.468,243.332c-35.62,0-66.701-7.152-83.404-17.775v36.725c16.703,10.616,47.787,16.711,83.404,16.711
		c35.625,0,66.719-7.152,83.423-17.775v-35.668C-55.749,236.18-86.835,243.332-122.468,243.332z"/>
	<path fill="#EEF3F5" d="M-203.633,116.743c0,11.362,36.341,20.558,81.176,20.558c44.825,0,81.173-9.196,81.173-20.558
		c0-11.34-36.348-20.544-81.173-20.544C-167.292,96.199-203.633,105.403-203.633,116.743z"/>
</g>
<g id="php">
	<polygon fill="#EEF3F5" points="259.826,10 247.555,10 247.555,22.821 247.555,130 259.826,130 259.826,22.272 292.557,22.272 
		292.557,53.633 304.828,53.633 304.828,22.821 304.828,10 292.557,10 	"/>
	<polygon fill="#EEF3F5" points="389.373,10 377.101,10 377.101,22.821 377.101,130 389.373,130 389.373,22.272 422.097,22.272 
		422.097,53.633 434.368,53.633 434.368,22.821 434.368,10 422.097,10 	"/>
	<polygon fill="#EEF3F5" points="359.369,60.451 322.553,60.451 322.553,10 310.281,10 310.281,130 322.553,130 322.553,79.544 
		359.369,79.544 359.369,130 371.646,130 371.646,10 359.369,10 	"/>
</g>
<polygon id="angularjs" fill="#EEF3F5" points="-41.207,2.891 -23.785,2.891 -104.616,-185.451 -122.037,-177.652 -88.808,-103.429 
	-155.927,-103.429 -122.697,-177.652 -140.118,-185.451 -220.943,2.891 -203.521,2.891 -163.692,-86.077 -81.036,-86.077 "/>
<g id="javascript">
	<polygon fill="#EEF3F5" points="386.176,-218.937 386.176,-241.986 316.64,-241.986 295.746,-241.986 295.746,-219.202 
		295.746,-178.907 295.746,-164.256 295.746,-151.563 368.442,-151.563 368.442,-114.326 295.746,-114.326 295.746,-91.28 
		367.061,-91.28 386.176,-91.28 386.176,-116.646 386.176,-153.272 386.176,-171.583 386.176,-178.157 318.8,-178.157 
		318.8,-218.937 	"/>
	<polygon fill="#EEF3F5" points="256.736,-241.986 256.736,-110.781 223.046,-110.781 223.046,-133.83 200,-133.83 200,-111.253 
		200,-91.28 223.046,-91.28 256.736,-91.28 283.334,-91.28 283.334,-111.253 283.334,-241.986 	"/>
</g>
<g id="jquery">
	<polygon fill="#EEF3F5" points="65.965,-200.86 37.122,-172.017 -76.112,-285.248 -47.275,-314.088 -64.901,-331.711 
		-111.365,-285.248 37.122,-136.768 83.588,-183.237 	"/>
	<polygon fill="#EEF3F5" points="65.203,-237.536 45.895,-218.228 -29.908,-294.021 -10.599,-313.328 -22.396,-325.122 
		-53.506,-294.021 45.895,-194.635 76.996,-225.736 	"/>
	<polygon fill="#EEF3F5" points="69.158,-269.2 56.91,-256.952 8.827,-305.038 21.072,-317.283 13.591,-324.767 -6.14,-305.038 
		56.91,-241.986 76.641,-261.717 	"/>
</g>
<path id="sass" fill="#EEF3F5" d="M-242.747-100.668l20.354-21.608l-6.136-6.511l-20.351,21.606l-41.24-43.782l41.24-43.787
	l20.351,21.611l6.136-6.519l-26.486-28.112l-53.509,56.807l47.373,50.29l-47.373,50.298l27.936,29.659l53.51-56.807
	L-242.747-100.668z M-274.453-33.738l-15.667-16.634l41.24-43.787l15.67,16.642L-274.453-33.738z"/>
<g id="java">
	<path fill="#EEF3F5" d="M357.442,438.078c-1.081-3.242-2.372-6.359-3.721-9.197c-9.922,9.104-31.429,16.485-57.841,16.485
		c-26.413,0-50.91-4.712-60.832-13.815c-3.559,7.52-3.731,14.188-3.731,22.951c0,33.475,28.905,60.617,64.563,60.617
		c23.442,0,43.958-11.732,55.271-29.272c13.117-1.154,36.062-13.296,37.93-25.186C391.321,446.426,370.261,438.557,357.442,438.078z
		 M356.377,475.715c2.623-6.602,4.062-13.752,4.062-21.213c0-2.902-0.347-5.855-0.939-8.795c9.271,0.383,20.122,3.957,20.122,12.981
		C379.621,468.007,365.527,473.915,356.377,475.715z"/>
	<path fill="#EEF3F5" d="M310.068,326.849c0,0-70.928,22.325-53.76,53.813c17.163,31.487,43.397,41.409,31.733,53.241
		c-11.653,11.826,34.146-16.029,8.007-48.089C269.908,353.755,310.068,326.849,310.068,326.849z"/>
	<path fill="#EEF3F5" d="M319.255,354.689c0,0-23.085,11.008-17.497,26.533c5.588,15.521,14.123,20.41,10.331,26.245
		c-3.794,5.835,11.111-7.901,2.602-23.711C306.181,367.953,319.255,354.689,319.255,354.689z"/>
</g>
<path id="android" fill="#EEF3F5" d="M723.967,466.609c-2.785-6.848-9.031-13.02-17.576-17.662v-39.371h-29.947v29.111
	c-27.787-5.838-62.35-5.697-89.813,0.402v-29.514h-28.18v39.455c-8.462,4.625-14.623,10.764-17.387,17.578
	c-9.91,24.408,0,96.17,0,96.17h182.902C723.967,562.779,733.686,490.432,723.967,466.609z M602.477,520.52h-24.654v-26.408h24.654
	V520.52z M685.252,520.52h-24.658v-26.408h24.658V520.52z"/>
<polygon id="git" fill="#EEF3F5" points="794.232,-173.928 790.723,-170.375 732.266,-229.562 732.266,-258.802 703.668,-258.802 
	656.337,-306.571 638.514,-288.893 679.471,-247.275 679.471,-209.935 693.049,-209.935 693.049,-145.801 686.258,-145.801 
	686.258,-110.68 722.508,-110.68 722.508,-145.801 715.676,-145.801 715.676,-209.935 717.556,-209.935 773.322,-153.125 
	769.705,-149.277 793.533,-125.064 818.061,-149.853 "/>
<g id="ps">
	<polygon fill="#EEF3F5" points="491.543,-71.083 472.5,-71.083 472.5,-51.191 472.5,115.083 491.543,115.083 491.543,-52.046 
		542.316,-52.046 542.316,-3.382 561.359,-3.382 561.359,-51.191 561.359,-71.083 542.316,-71.083 	"/>
	<polygon fill="#EEF3F5" points="654.455,32.577 654.455,15.647 592.098,15.647 574.055,15.647 574.055,30.758 574.055,57.29 
		574.055,66.932 574.055,74.896 635.404,74.896 635.404,98.16 574.055,98.16 574.055,115.083 635.512,115.083 654.455,115.083 
		654.455,98.288 654.455,74.172 654.455,62.107 654.455,55.847 590.979,55.847 590.979,32.577 	"/>
</g>
<g id="ai">
	<polygon fill="#EEF3F5" points="148.605,307.832 171.152,391.264 125.798,391.264 148.344,307.832 127.324,302.032 78.918,486.178 
		99.938,486.178 119.901,412.351 177.049,412.351 197.012,486.142 218.031,486.178 169.626,302.002 	"/>
	<rect x="229.07" y="415.262" fill="#EEF3F5" width="21.082" height="70.916"/>
	<rect x="229.07" y="384.601" fill="#EEF3F5" width="21.082" height="21.081"/>
</g>
<path id="cordova" fill="#EEF3F5" d="M179.217,192.424h-31.351l2.194-26.409h-15.405l-2.2,26.409H67.542l-2.195-26.409H49.936
	l2.201,26.409H20.78L3.176,77.995L47.189,7.576h105.625l44.01,70.419L179.217,192.424z M144.01,42.783h-28.294l1.891,13.21H82.396
	l1.885-13.21H55.986L38.386,77.995l8.803,70.414h105.625l8.803-70.414L144.01,42.783z M128.604,125.039
	c-2.425,0-4.401-7.327-4.401-16.371c0-9.039,1.977-16.371,4.401-16.371c2.437,0,4.401,7.332,4.401,16.371
	C133.006,117.712,131.041,125.039,128.604,125.039z M73.041,126.401c-2.431,0-4.401-7.327-4.401-16.365
	c0-9.044,1.971-16.376,4.401-16.376s4.398,7.332,4.398,16.376C77.439,119.074,75.472,126.401,73.041,126.401z"/>
<path id="laravel" fill="#EEF3F5" d="M-562.921-209.872l-9.313-12.943l-12.722,2.121l7.345,12.104l-21.37,5.66l-17.371-32.402
	l-16.881,1.313l15.893,39.508l16.989-4.531l9.513,17.129l26.501-10.336l-9.025-14.176L-562.921-209.872z M-615.217-198.747
	l-14.6-33.27l11.91-1.109l16.141,30.637L-615.217-198.747z M-581.592-218.78l8.229-1.918l6.504,9.303l-8.362,2.313L-581.592-218.78z
	 M-568.717-194.417l-21.237,7.826l-7.301-13.287l21.104-6.203L-568.717-194.417z"/>
<path id="swift" fill-rule="evenodd" clip-rule="evenodd" fill="#EEF3F5" d="M-476.11-199.058c1.109-4.066,1.059-8.154,0.098-12.238
	c-1.479-6.287-4.662-11.637-9.031-16.32c-2.369-2.539-5.042-4.709-8.079-6.623c5.504,8.467,8.268,17.289,4.806,27.389
	c-10.057-6.422-19.045-13.893-27.471-22.076c4.723,6.83,9.847,13.338,15.431,19.508c-7.938-4.977-15.327-10.674-22.487-16.697
	c7.903,10.418,16.214,20.449,26.715,28.559c-0.529,0.297-0.913,0.527-1.311,0.729c-5.366,2.744-11.021,3.15-16.842,1.99
	c-5.242-1.041-10.012-3.193-14.509-6.434c0.179,0.301,0.243,0.436,0.329,0.557c6.891,9.768,16.037,15.873,28.098,17.146
	c4.881,0.514,9.541-0.355,13.97-2.539c1.368-0.678,2.834-1.23,4.315-1.59c4.309-1.047,7.5,0.391,9.693,4.205
	c0.096,0.162,0.213,0.313,0.319,0.473c0.086,0.004,0.167,0.004,0.253,0.01c0.125-0.73,0.345-1.463,0.356-2.191
	c0.079-4.721-1.585-8.854-4.389-12.572C-476.16-198.19-476.251-198.534-476.11-199.058z"/>
<g id="gulp">
	<g>
		<polygon fill-rule="evenodd" clip-rule="evenodd" fill="#EEF3F5" points="-810.126,4.521 -810.126,4.509 -810.126,4.519 		"/>
		<polygon fill-rule="evenodd" clip-rule="evenodd" fill="#EEF3F5" points="-893.877,4.521 -893.877,4.519 -893.877,4.519 		"/>
		<path fill-rule="evenodd" clip-rule="evenodd" fill="#EEF3F5" d="M-852.001,14.502c-21.52,0-39.243-3.665-41.65-8.382
			l10.951,77.419c0,5.232,13.87,9.475,30.989,9.475c17.114,0,30.415-4.243,30.415-9.475l10.945-77.421
			C-812.752,10.837-830.476,14.502-852.001,14.502z"/>
		<path fill-rule="evenodd" clip-rule="evenodd" fill="#EEF3F5" d="M-880.329,90.17l5.523,8.83h0.136l5.365,18.24
			c0,1.44,7.82,2.467,17.465,2.467c9.646,0,17.148-1.242,17.148-2.683l5.487-18.995l5.528-8.059c-4.554,3.392-15.229,5.9-28.035,5.9
			C-864.611,95.871-875.662,93.597-880.329,90.17z"/>
	</g>
	<path fill-rule="evenodd" clip-rule="evenodd" fill="#EEF3F5" d="M-852.001-8.508c-23.161,0-41.934,4.24-41.934,9.474
		c0,5.232,18.773,9.475,41.934,9.475c23.162,0,41.936-4.243,41.936-9.475C-810.065-4.268-828.839-8.508-852.001-8.508z
		 M-843.389,3.221c-3.374,0-6.111-0.708-6.111-1.579s2.737-1.579,6.111-1.579s6.105,0.708,6.105,1.579S-840.015,3.221-843.389,3.221
		z"/>
	<path fill-rule="evenodd" clip-rule="evenodd" fill="#EEF3F5" d="M-822.005-73.831c0-0.962-2.239-2.097-5.001-2.097
		s-4.996,1.311-4.996,2.277c0,0.042,0.025,0.65,0.03,0.65h-0.03l-8.334,36l-8.33,36h0.035c-0.01,0-0.035,0.767-0.035,0.81
		c0,0.961,2.239,2.085,4.996,2.085c2.762,0,5.001-1.292,5.001-2.259c0-0.042-0.025-0.637-0.035-0.637h0.035l8.329-36l8.335-36
		h-0.035C-822.035-73-822.005-73.789-822.005-73.831z"/>
</g>
<g id="npm">
	<polygon fill-rule="evenodd" clip-rule="evenodd" fill="#EEF3F5" points="-765,162 -765,225 -710,225 -710,238 -664,238 -664,225 
		-575,225 -575,162 	"/>
	<g>
		<polygon fill-rule="evenodd" clip-rule="evenodd" fill="#181C1D" points="-755,219 -732,219 -732,181 -721,181 -721,219 -710,219 
			-710,172 -755,172 		"/>
		<polygon fill-rule="evenodd" clip-rule="evenodd" fill="#181C1D" points="-599.454,172 -611.818,172 -645,172 -645,219 -623,219 
			-623,181 -613,181 -613,219 -611.57,219 -599.454,219 -598,219 -598,181 -591,181 -591,219 -581,219 -581,172 		"/>
		<path fill-rule="evenodd" clip-rule="evenodd" fill="#181C1D" d="M-698,228h20v-9h25v-47.929l-45-0.126V228z M-678,181h14v25h-14
			V181z"/>
	</g>
</g>
</svg>
