<svg xmlns="http://www.w3.org/2000/svg" width="200" height="200" viewBox="0 0 200 200"><g fill="#EEF3F5"><path d="M-122.283 195.107c-35.62 0-66.705-7.146-83.404-17.762v36.711c16.703 10.63 47.787 16.717 83.404 16.717 35.629 0 66.725-7.152 83.427-17.775v-35.667c-16.703 10.631-47.798 17.776-83.427 17.776z"/><path d="M-122.283 148.135c-35.62 0-66.705-7.152-83.404-17.776v36.726c16.703 10.623 47.787 16.71 83.404 16.71 35.629 0 66.725-7.152 83.427-17.775v-35.66c-16.703 10.623-47.798 17.775-83.427 17.775zm-.185 95.197c-35.62 0-66.701-7.152-83.404-17.775v36.725c16.703 10.616 47.787 16.711 83.404 16.711 35.625 0 66.719-7.152 83.423-17.775V225.55c-16.704 10.63-47.79 17.782-83.423 17.782z"/><path d="M-203.633 116.743c0 11.362 36.341 20.558 81.176 20.558 44.825 0 81.173-9.196 81.173-20.558 0-11.34-36.348-20.544-81.173-20.544-44.835 0-81.176 9.204-81.176 20.544z"/></g><path d="M259.826 10h-12.271v120h12.271V22.272h32.731v31.361h12.271V10h-12.271zm129.547 0h-12.272v120h12.272V22.272h32.724v31.361h12.271V10h-12.271zm-30.004 50.451h-36.816V10h-12.272v120h12.272V79.544h36.816V130h12.277V10h-12.277zM-41.207 2.891h17.422l-80.831-188.342-17.421 7.799 33.229 74.223h-67.119l33.23-74.223-17.421-7.799-80.825 188.342h17.422l39.829-88.968h82.656zm427.383-221.828v-23.049h-90.43v90.423h72.696v37.237h-72.696v23.046h90.43v-86.877H318.8v-40.78zm-129.44-23.049v131.205h-33.69v-23.049H200v42.55h83.334v-150.706z" fill="#EEF3F5"/><g fill="#EEF3F5"><path d="M65.965-200.86l-28.843 28.843-113.234-113.231 28.837-28.84-17.626-17.623-46.464 46.463 148.487 148.48 46.466-46.469z"/><path d="M65.203-237.536l-19.308 19.308-75.803-75.793 19.309-19.307-11.797-11.794-31.11 31.101 99.401 99.386 31.101-31.101z"/><path d="M69.158-269.2L56.91-256.952 8.827-305.038l12.245-12.245-7.481-7.484-19.731 19.729 63.05 63.052 19.731-19.731z"/></g><path fill="#EEF3F5" d="M-242.747-100.668l20.354-21.608-6.136-6.511-20.351 21.606-41.24-43.782 41.24-43.787 20.351 21.611 6.136-6.519-26.486-28.112-53.509 56.807 47.373 50.29-47.373 50.298 27.936 29.659 53.51-56.807-21.805-23.145zm-31.706 66.93l-15.667-16.634 41.24-43.787 15.67 16.642-41.243 43.779z"/><g fill="#EEF3F5"><path d="M357.442 438.078a82.074 82.074 0 0 0-3.721-9.197c-9.922 9.104-31.429 16.485-57.841 16.485-26.413 0-50.91-4.712-60.832-13.815-3.559 7.52-3.731 14.188-3.731 22.951 0 33.475 28.905 60.617 64.563 60.617 23.442 0 43.958-11.732 55.271-29.272 13.117-1.154 36.062-13.296 37.93-25.186 2.24-14.235-18.82-22.104-31.639-22.583zm-1.065 37.637a57.303 57.303 0 0 0 4.062-21.213c0-2.902-.347-5.855-.939-8.795 9.271.383 20.122 3.957 20.122 12.981-.001 9.319-14.095 15.227-23.245 17.027z"/><path d="M310.068 326.849s-70.928 22.325-53.76 53.813c17.163 31.487 43.397 41.409 31.733 53.241-11.653 11.826 34.146-16.029 8.007-48.089-26.14-32.059 14.02-58.965 14.02-58.965z"/><path d="M319.255 354.689s-23.085 11.008-17.497 26.533c5.588 15.521 14.123 20.41 10.331 26.245-3.794 5.835 11.111-7.901 2.602-23.711-8.51-15.803 4.564-29.067 4.564-29.067z"/></g><path fill="#EEF3F5" d="M723.967 466.609c-2.785-6.848-9.031-13.02-17.576-17.662v-39.371h-29.947v29.111c-27.787-5.838-62.35-5.697-89.813.402v-29.514h-28.18v39.455c-8.462 4.625-14.623 10.764-17.387 17.578-9.91 24.408 0 96.17 0 96.17h182.902c.001.001 9.72-72.346.001-96.169zm-121.49 53.911h-24.654v-26.408h24.654v26.408zm82.775 0h-24.658v-26.408h24.658v26.408zm108.98-694.448l-3.509 3.553-58.457-59.187v-29.24h-28.598l-47.331-47.769-17.823 17.678 40.957 41.618v37.34h13.578v64.134h-6.791v35.121h36.25v-35.121h-6.832v-64.134h1.88l55.766 56.81-3.617 3.848 23.828 24.213 24.528-24.789zM491.543-71.083H472.5v186.166h19.043V-52.046h50.773v48.664h19.043v-67.701h-19.043zm162.912 103.66v-16.93h-80.4v59.249h61.349V98.16h-61.349v16.923h80.4V55.847h-63.476v-23.27zm-505.85 275.255l22.547 83.432h-45.354l22.546-83.432-21.02-5.8-48.406 184.146h21.02l19.963-73.827h57.148l19.963 73.791 21.019.036-48.405-184.176zm80.465 107.43h21.082v70.916H229.07zm0-30.661h21.082v21.081H229.07zM-675.71-177.21h-10.657l.747-8.977h-5.237l-.747 8.977h-22.064l-.746-8.977h-5.238l.748 8.977h-10.658l-5.983-38.895 14.96-23.936h35.902l14.959 23.936-5.986 38.895zm-11.967-50.863h-9.617l.642 4.49h-11.968l.641-4.49h-9.617l-5.982 11.969 2.992 23.934h35.902l2.992-23.934-5.985-11.969zm-5.236 27.959c-.824 0-1.496-2.49-1.496-5.564 0-3.072.672-5.564 1.496-5.564.828 0 1.496 2.492 1.496 5.564 0 3.074-.668 5.564-1.496 5.564zm-18.887.463c-.826 0-1.496-2.49-1.496-5.563 0-3.074.67-5.566 1.496-5.566s1.495 2.492 1.495 5.566c0 3.072-.669 5.563-1.495 5.563zm148.879-10.221l-9.313-12.943-12.722 2.121 7.345 12.104-21.37 5.66-17.371-32.402-16.881 1.313 15.893 39.508 16.989-4.531 9.513 17.129 26.501-10.336-9.025-14.176 10.441-3.447zm-52.296 11.125l-14.6-33.27 11.91-1.109 16.141 30.637-13.451 3.742zm33.625-20.033l8.229-1.918 6.504 9.303-8.362 2.313-6.371-9.698zm12.875 24.363l-21.237 7.826-7.301-13.287 21.104-6.203 7.434 11.664z"/><path fill-rule="evenodd" clip-rule="evenodd" fill="#EEF3F5" d="M-476.11-199.058c1.109-4.066 1.059-8.154.098-12.238-1.479-6.287-4.662-11.637-9.031-16.32-2.369-2.539-5.042-4.709-8.079-6.623 5.504 8.467 8.268 17.289 4.806 27.389-10.057-6.422-19.045-13.893-27.471-22.076 4.723 6.83 9.847 13.338 15.431 19.508-7.938-4.977-15.327-10.674-22.487-16.697 7.903 10.418 16.214 20.449 26.715 28.559-.529.297-.913.527-1.311.729-5.366 2.744-11.021 3.15-16.842 1.99-5.242-1.041-10.012-3.193-14.509-6.434.179.301.243.436.329.557 6.891 9.768 16.037 15.873 28.098 17.146 4.881.514 9.541-.355 13.97-2.539a20.952 20.952 0 0 1 4.315-1.59c4.309-1.047 7.5.391 9.693 4.205.096.162.213.313.319.473.086.004.167.004.253.01.125-.73.345-1.463.356-2.191.079-4.721-1.585-8.854-4.389-12.572-.314-.418-.405-.762-.264-1.286z"/><g fill-rule="evenodd" clip-rule="evenodd" fill="#EEF3F5"><path d="M141.874 82.521v-.012.01zm-83.751 0v-.002zm41.876 9.981c-21.52 0-39.243-3.665-41.65-8.382L69.3 161.539c0 5.232 13.87 9.475 30.989 9.475 17.114 0 30.415-4.243 30.415-9.475l10.945-77.421c-2.401 4.719-20.125 8.384-41.65 8.384z"/><path d="M71.671 168.17l5.523 8.83h.136l5.365 18.24c0 1.44 7.82 2.467 17.465 2.467 9.646 0 17.148-1.242 17.148-2.683l5.487-18.995 5.528-8.059c-4.554 3.392-15.229 5.9-28.035 5.9-12.899.001-23.95-2.273-28.617-5.7zm28.328-98.678c-23.161 0-41.934 4.24-41.934 9.474 0 5.232 18.773 9.475 41.934 9.475 23.162 0 41.936-4.243 41.936-9.475 0-5.234-18.774-9.474-41.936-9.474zm8.612 11.729c-3.374 0-6.111-.708-6.111-1.579s2.737-1.579 6.111-1.579 6.105.708 6.105 1.579-2.731 1.579-6.105 1.579z"/><path d="M129.995 4.169c0-.962-2.239-2.097-5.001-2.097s-4.996 1.311-4.996 2.277c0 .042.025.65.03.65h-.03l-8.334 36-8.33 36h.035c-.01 0-.035.767-.035.81 0 .961 2.239 2.085 4.996 2.085 2.762 0 5.001-1.292 5.001-2.259 0-.042-.025-.637-.035-.637h.035l8.329-36 8.335-36h-.035c.005.002.035-.787.035-.829z"/></g><g fill-rule="evenodd" clip-rule="evenodd"><path fill="#EEF3F5" d="M-765 162v63h55v13h46v-13h89v-63z"/><path d="M-755 219h23v-38h11v38h11v-47h-45zm155.546-47H-645v47h22v-38h10v38h15v-38h7v38h10v-47zM-698 228h20v-9h25v-47.929l-45-.126V228zm20-47h14v25h-14v-25z" fill="#181C1D"/></g></svg>