<svg xmlns="http://www.w3.org/2000/svg" width="200" height="200" viewBox="0 0 200 200"><g fill="#EEF3F5"><path d="M-457.534 4.024c-9.601 0-17.979-1.926-22.479-4.787v9.895c4.502 2.865 12.88 4.506 22.479 4.506 9.603 0 17.983-1.928 22.485-4.791V-.766c-4.502 2.865-12.883 4.79-22.485 4.79z"/><path d="M-457.534-8.636c-9.601 0-17.979-1.928-22.479-4.791v9.898c4.502 2.863 12.88 4.504 22.479 4.504 9.603 0 17.983-1.928 22.485-4.791v-9.611c-4.502 2.864-12.883 4.791-22.485 4.791zm-.05 25.658c-9.601 0-17.978-1.928-22.479-4.791v9.898c4.502 2.861 12.88 4.504 22.479 4.504 9.603 0 17.983-1.928 22.484-4.791v-9.613c-4.501 2.866-12.88 4.793-22.484 4.793z"/><path d="M-479.46-17.097c0 3.063 9.795 5.541 21.879 5.541 12.082 0 21.878-2.479 21.878-5.541 0-3.057-9.796-5.537-21.878-5.537-12.084 0-21.879 2.481-21.879 5.537z"/></g><path d="M-490.703-99.034h-4.711v46.067h4.711v-41.356h12.564v12.04h4.711v-16.751h-4.711zm49.731 0h-4.712v46.067h4.712v-41.356h12.562v12.04h4.712v-16.751h-4.712zm-11.517 19.368h-14.134v-19.368h-4.711v46.067h4.711v-19.369h14.134v19.369h4.712v-46.067h-4.712zm14.467 493.785h5.332l-24.738-57.641-5.332 2.386 10.17 22.716h-20.542l10.17-22.716-5.331-2.386-24.737 57.641h5.332l12.19-27.228h25.297zm4.628-124.427v-7.296h-28.625v28.623h23.012v11.787h-23.012v7.295h28.625v-27.5h-21.327v-12.909zm-40.973-7.296v41.532h-10.664v-7.296h-7.295v13.469h26.379v-47.705z" fill="#EEF3F5"/><g fill="#EEF3F5"><path d="M-437.819 238.417l-9.045 9.045-35.509-35.508 9.043-9.044-5.527-5.526-14.57 14.57 46.563 46.562 14.572-14.573z"/><path d="M-438.058 226.916l-6.055 6.055-23.77-23.768 6.054-6.055-3.699-3.698-9.755 9.753 31.17 31.166 9.754-9.753z"/><path d="M-436.818 216.986l-3.841 3.841-15.078-15.079 3.84-3.84-2.346-2.346-6.187 6.186 19.771 19.773 6.188-6.188z"/></g><path fill="#EEF3F5" d="M-455.826 155.717l7.568-8.034-2.282-2.421-7.566 8.033-15.334-16.278 15.334-16.28 7.566 8.035 2.282-2.424-9.848-10.452-19.896 21.121 17.614 18.698-17.614 18.701 10.387 11.027 19.896-21.121-8.107-8.605zm-11.788 24.885l-5.825-6.185 15.334-16.28 5.826 6.188-15.335 16.277zm589.424-41.465v-18.24l51.722-18.47-51.722-18.47V65.714l75.271 27.705v18.011l-75.271 27.707zm-11.653-95.229h10.901L89.392 156.092H78.491l31.666-112.184zM2.92 111.43V93.423l75.27-27.709v18.243l-51.721 18.47 51.721 18.47v18.24L2.92 111.43z"/><g fill="#EEF3F5"><path d="M-543.278 11.608a30.544 30.544 0 0 0-1.385-3.424c-3.693 3.389-11.699 6.137-21.531 6.137s-18.951-1.754-22.645-5.143c-1.324 2.799-1.389 5.281-1.389 8.543 0 12.461 10.76 22.564 24.033 22.564 8.727 0 16.363-4.367 20.574-10.896 4.883-.43 13.424-4.949 14.119-9.375.835-5.298-7.004-8.228-11.776-8.406zm-.396 14.01a21.315 21.315 0 0 0 1.512-7.896c0-1.08-.129-2.18-.35-3.273 3.451.143 7.49 1.473 7.49 4.832 0 3.468-5.246 5.667-8.652 6.337z"/><path d="M-560.913-29.796s-26.402 8.311-20.012 20.031c6.389 11.721 16.154 15.414 11.813 19.818-4.338 4.402 12.711-5.967 2.98-17.9s5.219-21.949 5.219-21.949z"/><path d="M-557.493-19.433s-8.594 4.098-6.514 9.877c2.08 5.777 5.258 7.598 3.846 9.77s4.137-2.941.969-8.826c-3.168-5.883 1.699-10.821 1.699-10.821z"/></g><path fill="#EEF3F5" d="M-528.84-80.057c-.975-2.395-3.158-4.553-6.146-6.176V-100h-10.471v10.18c-9.717-2.041-21.803-1.992-31.406.141V-100h-9.854v13.797c-2.959 1.617-5.113 3.764-6.08 6.146-3.465 8.535 0 33.629 0 33.629h63.957s3.399-25.299 0-33.629zm-42.482 18.852h-8.621v-9.234h8.621v9.234zm28.945 0H-551v-9.234h8.623v9.234zm-7.586 152.301l-.988.988-16.46-16.462v-8.133h-8.052l-13.327-13.286-5.019 4.917 11.533 11.575v10.386h3.823v17.838h-1.912v9.769h10.207v-9.769h-1.924V81.081h.529l15.702 15.801-1.018 1.07 6.709 6.735 6.906-6.895zm-52.985 134.545h-5.543v54.188h5.543v-48.647h14.779v14.165h5.543v-19.706h-5.543zm47.42 30.172v-4.927h-23.403v17.246h17.858v6.771h-17.858v4.926h23.403v-17.242h-18.477v-6.774zm-33.189-120.44l7.244 26.807h-14.572l7.244-26.807-6.754-1.863-15.552 59.166h6.753l6.415-23.721h18.361l6.414 23.709 6.754.012-15.553-59.176zm25.854 34.518h6.773v22.785h-6.773zm0-9.852h6.773v6.773h-6.773zM-675.71-177.21h-10.657l.747-8.977h-5.237l-.747 8.977h-22.064l-.746-8.977h-5.238l.748 8.977h-10.658l-5.983-38.895 14.96-23.936h35.902l14.959 23.936-5.986 38.895zm-11.967-50.863h-9.617l.642 4.49h-11.968l.641-4.49h-9.617l-5.982 11.969 2.992 23.934h35.902l2.992-23.934-5.985-11.969zm-5.236 27.959c-.824 0-1.496-2.49-1.496-5.564 0-3.072.672-5.564 1.496-5.564.828 0 1.496 2.492 1.496 5.564 0 3.074-.668 5.564-1.496 5.564zm-18.887.463c-.826 0-1.496-2.49-1.496-5.563 0-3.074.67-5.566 1.496-5.566s1.495 2.492 1.495 5.566c0 3.072-.669 5.563-1.495 5.563zm148.879-10.221l-9.313-12.943-12.722 2.121 7.345 12.104-21.37 5.66-17.371-32.402-16.881 1.313 15.893 39.508 16.989-4.531 9.513 17.129 26.501-10.336-9.025-14.176 10.441-3.447zm-52.296 11.125l-14.6-33.27 11.91-1.109 16.141 30.637-13.451 3.742zm33.625-20.033l8.229-1.918 6.504 9.303-8.362 2.313-6.371-9.698zm12.875 24.363l-21.237 7.826-7.301-13.287 21.104-6.203 7.434 11.664z"/><path fill-rule="evenodd" clip-rule="evenodd" fill="#EEF3F5" d="M-476.11-199.058c1.109-4.066 1.059-8.154.098-12.238-1.479-6.287-4.662-11.637-9.031-16.32-2.369-2.539-5.042-4.709-8.079-6.623 5.504 8.467 8.268 17.289 4.806 27.389-10.057-6.422-19.045-13.893-27.471-22.076 4.723 6.83 9.847 13.338 15.431 19.508-7.938-4.977-15.327-10.674-22.487-16.697 7.903 10.418 16.214 20.449 26.715 28.559-.529.297-.913.527-1.311.729-5.366 2.744-11.021 3.15-16.842 1.99-5.242-1.041-10.012-3.193-14.509-6.434.179.301.243.436.329.557 6.891 9.768 16.037 15.873 28.098 17.146 4.881.514 9.541-.355 13.97-2.539a20.952 20.952 0 0 1 4.315-1.59c4.309-1.047 7.5.391 9.693 4.205.096.162.213.313.319.473.086.004.167.004.253.01.125-.73.345-1.463.356-2.191.079-4.721-1.585-8.854-4.389-12.572-.314-.418-.405-.762-.264-1.286z"/><g fill-rule="evenodd" clip-rule="evenodd" fill="#EEF3F5"><path d="M-706.03-98.164l.001-.005-.001.004zm-32.579 0v-.001zm16.29 3.883c-8.371 0-15.266-1.426-16.202-3.261l4.26 30.116c0 2.035 5.396 3.686 12.055 3.686 6.657 0 11.831-1.65 11.831-3.686l4.258-30.117c-.934 1.836-7.829 3.262-16.202 3.262z"/><path d="M-733.339-64.641L-731.19-61h.053l2.087 6.89c0 .561 3.042.856 6.794.856s6.671-.534 6.671-1.095l2.135-7.415 2.15-3.147c-1.771 1.319-5.924 2.392-10.906 2.392-5.019-.001-9.317-.789-11.133-2.122zm11.02-38.591c-9.01 0-16.313 1.649-16.313 3.686 0 2.035 7.303 3.686 16.313 3.686s16.313-1.65 16.313-3.686c0-2.037-7.304-3.686-16.313-3.686zm3.349 4.562c-1.313 0-2.377-.275-2.377-.614s1.064-.614 2.377-.614 2.376.275 2.376.614-1.063.614-2.376.614z"/><path d="M-710.651-128.483c0-.374-.87-.896-1.945-.896-1.073 0-1.943.63-1.943 1.006 0 .017.011.373.013.373h-.013l-3.241 14-3.24 14h.014c-.005 0-.014.143-.014.159 0 .374.87.733 1.943.733 1.074 0 1.945-.386 1.945-.762a.973.973 0 0 0-.015-.131h.015l3.24-14 3.241-14h-.013c.002.001.013-.466.013-.482z"/></g><g fill-rule="evenodd" clip-rule="evenodd"><path fill="#EEF3F5" d="M-771-8v33h29v7h24v-7h47V-8z"/><path d="M-766 22h12V2h6v20h6V-3h-24zm82.293-25H-708v25h12V2h5v20h8V2h4v20h5V-3zM-736 27h11v-5h13V-3.293l-24-.066V27zm11-25h7v13h-7V2z" fill="#181C1D"/></g></svg>