<svg xmlns="http://www.w3.org/2000/svg" width="123.947" height="100" viewBox="0 0 123.947 100"><path fill="#ECF0F1" d="M117.07 43.414l-.028.028-17.721-18.213-6.887 7.053 17.721 18.213-41.36 42.364 6.874 7.063 48.278-49.444zM88.258 13.459L75.682.64l-6.887 6.994 12.578 12.821z"/><path fill="#ECF0F1" d="M71.059 76.855l.026.028 6.885-6.993-13.16-13.416 32.839-33.359-6.875-7.005-32.838 33.358-.02-.021-6.879 7.001.013.016 1.914 1.949 11.221 11.436-15.62 15.867-32.222-32.848-6.885 6.996 39.131 39.885 6.886-6.995-.035-.035z"/><path fill="#ECF0F1" d="M42.677 47.928l.014-.014 1.225 1.25 6.887-6.995-11.312-11.531-.014.015-3.201-3.263L55.494 7.869 48.618.861 0 50.248l6.875 7.005 22.514-22.869z"/></svg>