<?xml version="1.0" encoding="utf-8"?>
<!-- Generator: Adobe Illustrator 16.0.0, SVG Export Plug-In . SVG Version: 6.00 Build 0)  -->
<!DOCTYPE svg PUBLIC "-//W3C//DTD SVG 1.1//EN" "http://www.w3.org/Graphics/SVG/1.1/DTD/svg11.dtd">
<svg version="1.1" id="Layer_1" xmlns="http://www.w3.org/2000/svg" xmlns:xlink="http://www.w3.org/1999/xlink" x="0px" y="0px"
	 width="200px" height="200px" viewBox="0 0 200 200" enable-background="new 0 0 200 200" xml:space="preserve">
<g id="mysqli">
	<path fill="#EEF3F5" d="M-145.201,320.055c-9.601,0-17.979-1.926-22.479-4.787v9.895c4.502,2.865,12.88,4.506,22.479,4.506
		c9.603,0,17.983-1.928,22.485-4.791v-9.613C-127.217,318.129-135.598,320.055-145.201,320.055z"/>
	<path fill="#EEF3F5" d="M-145.201,307.395c-9.601,0-17.979-1.928-22.479-4.791v9.898c4.502,2.863,12.88,4.504,22.479,4.504
		c9.603,0,17.983-1.928,22.485-4.791v-9.611C-127.217,305.467-135.598,307.395-145.201,307.395z"/>
	<path fill="#EEF3F5" d="M-145.25,333.053c-9.601,0-17.978-1.928-22.479-4.791v9.898c4.502,2.861,12.88,4.504,22.479,4.504
		c9.603,0,17.983-1.928,22.484-4.791v-9.613C-127.267,331.125-135.647,333.053-145.25,333.053z"/>
	<path fill="#EEF3F5" d="M-167.126,298.934c0,3.063,9.795,5.541,21.879,5.541c12.082,0,21.878-2.479,21.878-5.541
		c0-3.057-9.796-5.537-21.878-5.537C-157.332,293.396-167.126,295.877-167.126,298.934z"/>
</g>
<g id="php">
	<polygon fill="#EEF3F5" points="18.865,40 6.593,40 6.593,52.821 6.593,160 18.865,160 18.865,52.272 51.594,52.272 51.594,83.633 
		63.866,83.633 63.866,52.821 63.866,40 51.594,40 	"/>
	<polygon fill="#EEF3F5" points="148.411,40 136.139,40 136.139,52.821 136.139,160 148.411,160 148.411,52.272 181.135,52.272 
		181.135,83.633 193.406,83.633 193.406,52.821 193.406,40 181.135,40 	"/>
	<polygon fill="#EEF3F5" points="118.407,90.451 81.591,90.451 81.591,40 69.32,40 69.32,160 81.591,160 81.591,109.544 
		118.407,109.544 118.407,160 130.685,160 130.685,40 118.407,40 	"/>
</g>
<polygon id="angularjs" fill="#EEF3F5" points="-41.207,2.891 -23.785,2.891 -104.616,-185.451 -122.037,-177.652 -88.808,-103.429 
	-155.927,-103.429 -122.697,-177.652 -140.118,-185.451 -220.943,2.891 -203.521,2.891 -163.692,-86.077 -81.036,-86.077 "/>
<g id="javascript">
	<polygon fill="#EEF3F5" points="386.176,-218.937 386.176,-241.986 316.64,-241.986 295.746,-241.986 295.746,-219.202 
		295.746,-178.907 295.746,-164.256 295.746,-151.563 368.442,-151.563 368.442,-114.326 295.746,-114.326 295.746,-91.28 
		367.061,-91.28 386.176,-91.28 386.176,-116.646 386.176,-153.272 386.176,-171.583 386.176,-178.157 318.8,-178.157 
		318.8,-218.937 	"/>
	<polygon fill="#EEF3F5" points="256.736,-241.986 256.736,-110.781 223.046,-110.781 223.046,-133.83 200,-133.83 200,-111.253 
		200,-91.28 223.046,-91.28 256.736,-91.28 283.334,-91.28 283.334,-111.253 283.334,-241.986 	"/>
</g>
<g id="jquery">
	<polygon fill="#EEF3F5" points="65.965,-200.86 37.122,-172.017 -76.112,-285.248 -47.275,-314.088 -64.901,-331.711 
		-111.365,-285.248 37.122,-136.768 83.588,-183.237 	"/>
	<polygon fill="#EEF3F5" points="65.203,-237.536 45.895,-218.228 -29.908,-294.021 -10.599,-313.328 -22.396,-325.122 
		-53.506,-294.021 45.895,-194.635 76.996,-225.736 	"/>
	<polygon fill="#EEF3F5" points="69.158,-269.2 56.91,-256.952 8.827,-305.038 21.072,-317.283 13.591,-324.767 -6.14,-305.038 
		56.91,-241.986 76.641,-261.717 	"/>
</g>
<path id="sass" fill="#EEF3F5" d="M-242.747-100.668l20.354-21.608l-6.136-6.511l-20.351,21.606l-41.24-43.782l41.24-43.787
	l20.351,21.611l6.136-6.519l-26.486-28.112l-53.509,56.807l47.373,50.29l-47.373,50.298l27.936,29.659l53.51-56.807
	L-242.747-100.668z M-274.453-33.738l-15.667-16.634l41.24-43.787l15.67,16.642L-274.453-33.738z"/>
<g id="java">
	<path fill="#EEF3F5" d="M-543.278,11.608c-0.402-1.207-0.883-2.367-1.385-3.424c-3.693,3.389-11.699,6.137-21.531,6.137
		s-18.951-1.754-22.645-5.143c-1.324,2.799-1.389,5.281-1.389,8.543c0,12.461,10.76,22.564,24.033,22.564
		c8.727,0,16.363-4.367,20.574-10.896c4.883-0.43,13.424-4.949,14.119-9.375C-530.667,14.716-538.506,11.786-543.278,11.608z
		 M-543.674,25.618c0.977-2.457,1.512-5.119,1.512-7.896c0-1.08-0.129-2.18-0.35-3.273c3.451,0.143,7.49,1.473,7.49,4.832
		C-535.022,22.749-540.268,24.948-543.674,25.618z"/>
	<path fill="#EEF3F5" d="M-560.913-29.796c0,0-26.402,8.311-20.012,20.031c6.389,11.721,16.154,15.414,11.813,19.818
		c-4.338,4.402,12.711-5.967,2.98-17.9S-560.913-29.796-560.913-29.796z"/>
	<path fill="#EEF3F5" d="M-557.493-19.433c0,0-8.594,4.098-6.514,9.877c2.08,5.777,5.258,7.598,3.846,9.77s4.137-2.941,0.969-8.826
		C-562.36-14.495-557.493-19.433-557.493-19.433z"/>
</g>
<path id="android" fill="#EEF3F5" d="M-528.84-80.057c-0.975-2.395-3.158-4.553-6.146-6.176V-100h-10.471v10.18
	c-9.717-2.041-21.803-1.992-31.406,0.141V-100h-9.854v13.797c-2.959,1.617-5.113,3.764-6.08,6.146c-3.465,8.535,0,33.629,0,33.629
	h63.957C-528.84-46.428-525.441-71.727-528.84-80.057z M-571.322-61.205h-8.621v-9.234h8.621V-61.205z M-542.377-61.205H-551v-9.234
	h8.623V-61.205z"/>
<polygon id="git" fill="#EEF3F5" points="-549.963,91.096 -550.951,92.084 -567.411,75.622 -567.411,67.489 -575.463,67.489 
	-588.79,54.203 -593.809,59.12 -582.276,70.695 -582.276,81.081 -578.453,81.081 -578.453,98.919 -580.365,98.919 -580.365,108.688 
	-570.158,108.688 -570.158,98.919 -572.082,98.919 -572.082,81.081 -571.553,81.081 -555.851,96.882 -556.869,97.952 
	-550.16,104.687 -543.254,97.792 "/>
<g id="ps">
	<polygon fill="#EEF3F5" points="-602.948,225.641 -608.491,225.641 -608.491,231.431 -608.491,279.829 -602.948,279.829 
		-602.948,231.182 -588.169,231.182 -588.169,245.347 -582.626,245.347 -582.626,231.431 -582.626,225.641 -588.169,225.641 	"/>
	<polygon fill="#EEF3F5" points="-555.528,255.813 -555.528,250.886 -573.679,250.886 -578.931,250.886 -578.931,255.284 
		-578.931,263.007 -578.931,265.813 -578.931,268.132 -561.073,268.132 -561.073,274.903 -578.931,274.903 -578.931,279.829 
		-561.042,279.829 -555.528,279.829 -555.528,274.94 -555.528,267.921 -555.528,264.409 -555.528,262.587 -574.005,262.587 
		-574.005,255.813 	"/>
</g>
<g id="ai">
	<polygon fill="#EEF3F5" points="-588.717,135.373 -581.473,162.18 -596.045,162.18 -588.801,135.373 -595.555,133.51 
		-611.107,192.676 -604.354,192.676 -597.939,168.955 -579.578,168.955 -573.164,192.664 -566.41,192.676 -581.963,133.5 	"/>
	<rect x="-562.863" y="169.891" fill="#EEF3F5" width="6.773" height="22.785"/>
	<rect x="-562.863" y="160.039" fill="#EEF3F5" width="6.773" height="6.773"/>
</g>
<path id="cordova" fill="#EEF3F5" d="M-675.71-177.21h-10.657l0.747-8.977h-5.237l-0.747,8.977h-22.064l-0.746-8.977h-5.238
	l0.748,8.977h-10.658l-5.983-38.895l14.96-23.936h35.902l14.959,23.936L-675.71-177.21z M-687.677-228.073h-9.617l0.642,4.49
	h-11.968l0.641-4.49h-9.617l-5.982,11.969l2.992,23.934h35.902l2.992-23.934L-687.677-228.073z M-692.913-200.114
	c-0.824,0-1.496-2.49-1.496-5.564c0-3.072,0.672-5.564,1.496-5.564c0.828,0,1.496,2.492,1.496,5.564
	C-691.417-202.604-692.085-200.114-692.913-200.114z M-711.8-199.651c-0.826,0-1.496-2.49-1.496-5.563
	c0-3.074,0.67-5.566,1.496-5.566s1.495,2.492,1.495,5.566C-710.305-202.142-710.974-199.651-711.8-199.651z"/>
<path id="laravel" fill="#EEF3F5" d="M-562.921-209.872l-9.313-12.943l-12.722,2.121l7.345,12.104l-21.37,5.66l-17.371-32.402
	l-16.881,1.313l15.893,39.508l16.989-4.531l9.513,17.129l26.501-10.336l-9.025-14.176L-562.921-209.872z M-615.217-198.747
	l-14.6-33.27l11.91-1.109l16.141,30.637L-615.217-198.747z M-581.592-218.78l8.229-1.918l6.504,9.303l-8.362,2.313L-581.592-218.78z
	 M-568.717-194.417l-21.237,7.826l-7.301-13.287l21.104-6.203L-568.717-194.417z"/>
<path id="swift" fill-rule="evenodd" clip-rule="evenodd" fill="#EEF3F5" d="M-476.11-199.058c1.109-4.066,1.059-8.154,0.098-12.238
	c-1.479-6.287-4.662-11.637-9.031-16.32c-2.369-2.539-5.042-4.709-8.079-6.623c5.504,8.467,8.268,17.289,4.806,27.389
	c-10.057-6.422-19.045-13.893-27.471-22.076c4.723,6.83,9.847,13.338,15.431,19.508c-7.938-4.977-15.327-10.674-22.487-16.697
	c7.903,10.418,16.214,20.449,26.715,28.559c-0.529,0.297-0.913,0.527-1.311,0.729c-5.366,2.744-11.021,3.15-16.842,1.99
	c-5.242-1.041-10.012-3.193-14.509-6.434c0.179,0.301,0.243,0.436,0.329,0.557c6.891,9.768,16.037,15.873,28.098,17.146
	c4.881,0.514,9.541-0.355,13.97-2.539c1.368-0.678,2.834-1.23,4.315-1.59c4.309-1.047,7.5,0.391,9.693,4.205
	c0.096,0.162,0.213,0.313,0.319,0.473c0.086,0.004,0.167,0.004,0.253,0.01c0.125-0.73,0.345-1.463,0.356-2.191
	c0.079-4.721-1.585-8.854-4.389-12.572C-476.16-198.19-476.251-198.534-476.11-199.058z"/>
<g id="gulp">
	<g>
		<polygon fill-rule="evenodd" clip-rule="evenodd" fill="#EEF3F5" points="-706.03,-98.164 -706.029,-98.169 -706.03,-98.165 		"/>
		<polygon fill-rule="evenodd" clip-rule="evenodd" fill="#EEF3F5" points="-738.609,-98.164 -738.609,-98.165 -738.609,-98.165 		
			"/>
		<path fill-rule="evenodd" clip-rule="evenodd" fill="#EEF3F5" d="M-722.319-94.281c-8.371,0-15.266-1.426-16.202-3.261
			l4.26,30.116c0,2.035,5.396,3.686,12.055,3.686c6.657,0,11.831-1.65,11.831-3.686l4.258-30.117
			C-707.051-95.707-713.946-94.281-722.319-94.281z"/>
		<path fill-rule="evenodd" clip-rule="evenodd" fill="#EEF3F5" d="M-733.339-64.641L-731.19-61h0.053l2.087,6.89
			c0,0.561,3.042,0.856,6.794,0.856s6.671-0.534,6.671-1.095l2.135-7.415l2.15-3.147c-1.771,1.319-5.924,2.392-10.906,2.392
			C-727.225-62.52-731.523-63.308-733.339-64.641z"/>
	</g>
	<path fill-rule="evenodd" clip-rule="evenodd" fill="#EEF3F5" d="M-722.319-103.232c-9.01,0-16.313,1.649-16.313,3.686
		c0,2.035,7.303,3.686,16.313,3.686s16.313-1.65,16.313-3.686C-706.006-101.583-713.31-103.232-722.319-103.232z M-718.97-98.67
		c-1.313,0-2.377-0.275-2.377-0.614s1.064-0.614,2.377-0.614s2.376,0.275,2.376,0.614S-717.657-98.67-718.97-98.67z"/>
	<path fill-rule="evenodd" clip-rule="evenodd" fill="#EEF3F5" d="M-710.651-128.483c0-0.374-0.87-0.896-1.945-0.896
		c-1.073,0-1.943,0.63-1.943,1.006c0,0.017,0.011,0.373,0.013,0.373h-0.013l-3.241,14l-3.24,14h0.014
		c-0.005,0-0.014,0.143-0.014,0.159c0,0.374,0.87,0.733,1.943,0.733c1.074,0,1.945-0.386,1.945-0.762
		c0-0.017-0.011-0.131-0.015-0.131h0.015l3.24-14l3.241-14h-0.013C-710.662-128-710.651-128.467-710.651-128.483z"/>
</g>
<g id="npm">
	<polygon fill-rule="evenodd" clip-rule="evenodd" fill="#EEF3F5" points="-771,-8 -771,25 -742,25 -742,32 -718,32 -718,25 
		-671,25 -671,-8 	"/>
	<g>
		<polygon fill-rule="evenodd" clip-rule="evenodd" fill="#181C1D" points="-766,22 -754,22 -754,2 -748,2 -748,22 -742,22 -742,-3 
			-766,-3 		"/>
		<polygon fill-rule="evenodd" clip-rule="evenodd" fill="#181C1D" points="-683.707,-3 -690.243,-3 -708,-3 -708,22 -696,22 
			-696,2 -691,2 -691,22 -690.112,22 -683.707,22 -683,22 -683,2 -679,2 -679,22 -674,22 -674,-3 		"/>
		<path fill-rule="evenodd" clip-rule="evenodd" fill="#181C1D" d="M-736,27h11v-5h13V-3.293l-24-0.066V27z M-725,2h7v13h-7V2z"/>
	</g>
</g>
</svg>
