<svg xmlns="http://www.w3.org/2000/svg" width="200" height="200" viewBox="0 0 200 200"><g fill="#EEF3F5"><path d="M-122.283 195.107c-35.62 0-66.705-7.146-83.404-17.762v36.711c16.703 10.63 47.787 16.717 83.404 16.717 35.629 0 66.725-7.152 83.427-17.775v-35.667c-16.703 10.631-47.798 17.776-83.427 17.776z"/><path d="M-122.283 148.135c-35.62 0-66.705-7.152-83.404-17.776v36.726c16.703 10.623 47.787 16.71 83.404 16.71 35.629 0 66.725-7.152 83.427-17.775v-35.66c-16.703 10.623-47.798 17.775-83.427 17.775zm-.185 95.197c-35.62 0-66.701-7.152-83.404-17.775v36.725c16.703 10.616 47.787 16.711 83.404 16.711 35.625 0 66.719-7.152 83.423-17.775V225.55c-16.704 10.63-47.79 17.782-83.423 17.782z"/><path d="M-203.633 116.743c0 11.362 36.341 20.558 81.176 20.558 44.825 0 81.173-9.196 81.173-20.558 0-11.34-36.348-20.544-81.173-20.544-44.835 0-81.176 9.204-81.176 20.544z"/></g><path d="M259.826 10h-12.271v120h12.271V22.272h32.731v31.361h12.271V10h-12.271zm129.547 0h-12.272v120h12.272V22.272h32.724v31.361h12.271V10h-12.271zm-30.004 50.451h-36.816V10h-12.272v120h12.272V79.544h36.816V130h12.277V10h-12.277zM-41.207 2.891h17.422l-80.831-188.342-17.421 7.799 33.229 74.223h-67.119l33.23-74.223-17.421-7.799-80.825 188.342h17.422l39.829-88.968h82.656zm427.383-221.828v-23.049h-90.43v90.423h72.696v37.237h-72.696v23.046h90.43v-86.877H318.8v-40.78zm-129.44-23.049v131.205h-33.69v-23.049H200v42.55h83.334v-150.706z" fill="#EEF3F5"/><g fill="#EEF3F5"><path d="M65.965-200.86l-28.843 28.843-113.234-113.231 28.837-28.84-17.626-17.623-46.464 46.463 148.487 148.48 46.466-46.469z"/><path d="M65.203-237.536l-19.308 19.308-75.803-75.793 19.309-19.307-11.797-11.794-31.11 31.101 99.401 99.386 31.101-31.101z"/><path d="M69.158-269.2L56.91-256.952 8.827-305.038l12.245-12.245-7.481-7.484-19.731 19.729 63.05 63.052 19.731-19.731z"/></g><path fill="#EEF3F5" d="M-242.747-100.668l20.354-21.608-6.136-6.511-20.351 21.606-41.24-43.782 41.24-43.787 20.351 21.611 6.136-6.519-26.486-28.112-53.509 56.807 47.373 50.29-47.373 50.298 27.936 29.659 53.51-56.807-21.805-23.145zm-31.706 66.93l-15.667-16.634 41.24-43.787 15.67 16.642-41.243 43.779z"/><g fill="#EEF3F5"><path d="M357.442 438.078a82.074 82.074 0 0 0-3.721-9.197c-9.922 9.104-31.429 16.485-57.841 16.485-26.413 0-50.91-4.712-60.832-13.815-3.559 7.52-3.731 14.188-3.731 22.951 0 33.475 28.905 60.617 64.563 60.617 23.442 0 43.958-11.732 55.271-29.272 13.117-1.154 36.062-13.296 37.93-25.186 2.24-14.235-18.82-22.104-31.639-22.583zm-1.065 37.637a57.303 57.303 0 0 0 4.062-21.213c0-2.902-.347-5.855-.939-8.795 9.271.383 20.122 3.957 20.122 12.981-.001 9.319-14.095 15.227-23.245 17.027z"/><path d="M310.068 326.849s-70.928 22.325-53.76 53.813c17.163 31.487 43.397 41.409 31.733 53.241-11.653 11.826 34.146-16.029 8.007-48.089-26.14-32.059 14.02-58.965 14.02-58.965z"/><path d="M319.255 354.689s-23.085 11.008-17.497 26.533c5.588 15.521 14.123 20.41 10.331 26.245-3.794 5.835 11.111-7.901 2.602-23.711-8.51-15.803 4.564-29.067 4.564-29.067z"/></g><path fill="#EEF3F5" d="M723.967 466.609c-2.785-6.848-9.031-13.02-17.576-17.662v-39.371h-29.947v29.111c-27.787-5.838-62.35-5.697-89.813.402v-29.514h-28.18v39.455c-8.462 4.625-14.623 10.764-17.387 17.578-9.91 24.408 0 96.17 0 96.17h182.902c.001.001 9.72-72.346.001-96.169zm-121.49 53.911h-24.654v-26.408h24.654v26.408zm82.775 0h-24.658v-26.408h24.658v26.408zm108.98-694.448l-3.509 3.553-58.457-59.187v-29.24h-28.598l-47.331-47.769-17.823 17.678 40.957 41.618v37.34h13.578v64.134h-6.791v35.121h36.25v-35.121h-6.832v-64.134h1.88l55.766 56.81-3.617 3.848 23.828 24.213 24.528-24.789zM491.543-71.083H472.5v186.166h19.043V-52.046h50.773v48.664h19.043v-67.701h-19.043zm162.912 103.66v-16.93h-80.4v59.249h61.349V98.16h-61.349v16.923h80.4V55.847h-63.476v-23.27zm-505.85 275.255l22.547 83.432h-45.354l22.546-83.432-21.02-5.8-48.406 184.146h21.02l19.963-73.827h57.148l19.963 73.791 21.019.036-48.405-184.176zm80.465 107.43h21.082v70.916H229.07zm0-30.661h21.082v21.081H229.07zM-483.704 100h-31.351l2.194-26.409h-15.405l-2.2 26.409h-64.913l-2.195-26.409h-15.411l2.201 26.409h-31.356l-17.604-114.429 44.013-70.419h105.625l44.01 70.419L-483.704 100zm-35.207-149.642h-28.294l1.891 13.21h-35.211l1.885-13.21h-28.294l-17.601 35.212 8.803 70.414h105.625l8.803-70.414-17.607-35.212zm-15.405 82.257c-2.425 0-4.401-7.327-4.401-16.371 0-9.039 1.977-16.371 4.401-16.371 2.437 0 4.401 7.332 4.401 16.371 0 9.044-1.965 16.371-4.401 16.371zm-55.564 1.362c-2.431 0-4.401-7.327-4.401-16.365 0-9.044 1.971-16.376 4.401-16.376s4.398 7.332 4.398 16.376c.001 9.038-1.967 16.365-4.398 16.365zm-220.185-264.288l-25.448-35.37-34.766 5.796 20.072 33.075-58.398 15.467-47.469-88.544-46.129 3.586 43.429 107.961 46.425-12.382 25.994 46.807 72.421-28.245-24.663-38.737 28.532-9.414zm-142.908 30.401l-39.896-90.914 32.546-3.031 44.106 83.719-36.756 10.226zm91.884-54.743l22.491-5.241 17.772 25.421-22.854 6.319-17.409-26.499zm35.183 66.576l-58.031 21.386L-903.89-203l57.67-16.951 20.314 31.874z"/><path fill-rule="evenodd" clip-rule="evenodd" fill="#EEF3F5" d="M185.084 133.9c3.931-14.409 3.751-28.894.346-43.364-5.238-22.277-16.519-41.232-32-57.828-8.395-8.997-17.865-16.685-28.627-23.467 19.502 30 29.295 61.26 17.028 97.046-35.634-22.754-67.484-49.226-97.339-78.223 16.734 24.201 34.89 47.26 54.676 69.122-28.128-17.633-54.309-37.82-79.679-59.163 28.004 36.914 57.45 72.458 94.66 101.192-1.875 1.052-3.235 1.868-4.644 2.581-19.016 9.724-39.051 11.163-59.677 7.052-18.575-3.688-35.475-11.315-51.409-22.796.633 1.066.862 1.543 1.166 1.972C24 162.634 56.409 184.268 99.144 188.78c17.296 1.819 33.809-1.26 49.501-8.997 4.848-2.401 10.041-4.36 15.29-5.633 15.267-3.709 26.575 1.384 34.347 14.9.34.574.755 1.107 1.132 1.675.305.014.592.014.896.034.442-2.588 1.222-5.183 1.263-7.765.28-16.727-5.616-31.371-15.551-44.547-1.115-1.474-1.436-2.692-.938-4.547z"/><g fill-rule="evenodd" clip-rule="evenodd" fill="#EEF3F5"><path d="M-810.126 4.521v-.012.01zm-83.751 0v-.002zm41.876 9.981c-21.52 0-39.243-3.665-41.65-8.382l10.951 77.419c0 5.232 13.87 9.475 30.989 9.475 17.114 0 30.415-4.243 30.415-9.475l10.945-77.421c-2.401 4.719-20.125 8.384-41.65 8.384z"/><path d="M-880.329 90.17l5.523 8.83h.136l5.365 18.24c0 1.44 7.82 2.467 17.465 2.467 9.646 0 17.148-1.242 17.148-2.683l5.487-18.995 5.528-8.059c-4.554 3.392-15.229 5.9-28.035 5.9-12.899.001-23.95-2.273-28.617-5.7zm28.328-98.678c-23.161 0-41.934 4.24-41.934 9.474 0 5.232 18.773 9.475 41.934 9.475 23.162 0 41.936-4.243 41.936-9.475 0-5.234-18.774-9.474-41.936-9.474zm8.612 11.729c-3.374 0-6.111-.708-6.111-1.579s2.737-1.579 6.111-1.579 6.105.708 6.105 1.579-2.731 1.579-6.105 1.579z"/><path d="M-822.005-73.831c0-.962-2.239-2.097-5.001-2.097s-4.996 1.311-4.996 2.277c0 .042.025.65.03.65h-.03l-8.334 36-8.33 36h.035c-.01 0-.035.767-.035.81 0 .961 2.239 2.085 4.996 2.085 2.762 0 5.001-1.292 5.001-2.259 0-.042-.025-.637-.035-.637h.035l8.329-36 8.335-36h-.035c.005.002.035-.787.035-.829z"/></g><g fill-rule="evenodd" clip-rule="evenodd"><path fill="#EEF3F5" d="M-765 162v63h55v13h46v-13h89v-63z"/><path d="M-755 219h23v-38h11v38h11v-47h-45zm155.546-47H-645v47h22v-38h10v38h15v-38h7v38h10v-47zM-698 228h20v-9h25v-47.929l-45-.126V228zm20-47h14v25h-14v-25z" fill="#181C1D"/></g></svg>